<?xml version="1.0" encoding="UTF-8" standalone="no"?>
<!-- Created with Inkscape (http://www.inkscape.org/) -->

<svg
   xmlns:dc="http://purl.org/dc/elements/1.1/"
   xmlns:cc="http://creativecommons.org/ns#"
   xmlns:rdf="http://www.w3.org/1999/02/22-rdf-syntax-ns#"
   xmlns:svg="http://www.w3.org/2000/svg"
   xmlns="http://www.w3.org/2000/svg"
   version="1.1"
   width="230"
   height="175"
   id="svg2">
  <defs
     id="defs4" />
  <metadata
     id="metadata7">
    <rdf:RDF>
      <cc:Work
         rdf:about="">
        <dc:format>image/svg+xml</dc:format>
        <dc:type
           rdf:resource="http://purl.org/dc/dcmitype/StillImage" />
        <dc:title></dc:title>
      </cc:Work>
    </rdf:RDF>
  </metadata>
  <g
     transform="translate(0,-877.36218)"
     id="layer1">
    <g
       transform="matrix(0.9985213,0,0,0.99823059,-131.15807,396.42273)"
       id="g3825">
      <path
         d="m 150.81501,482.69927 c 0.53954,1.17851 1.6793,2.24081 1.61862,3.53553 -0.0349,0.7456 -1.09746,1.27511 -1.84387,1.27059 -5.48209,-0.0332 -10.9921,-0.41494 -16.38849,-1.38107 -1.13379,-0.20298 -3.25506,-1.00115 -2.78101,-2.05089 0.53623,-1.1874 2.58838,-0.49183 3.88805,-0.40051 5.53349,0.38884 11.02654,1.22398 16.53982,1.83596 0.12674,0.79583 1.35252,3.94197 -1.03158,4.09217 -5.16822,0.3256 -10.37794,0.1244 -15.53039,-0.39404 -0.46062,-0.0463 -0.4422,-0.81405 -0.63932,-1.23294 -0.0668,-0.14206 -0.30774,-0.45241 -0.15085,-0.44621 5.36028,0.21173 10.70498,0.71636 16.05747,1.07454 0.24776,0.63565 0.73822,1.22473 0.74327,1.90693 0.004,0.52712 -0.58839,0.89788 -0.71874,1.40865 -0.0298,0.11688 0.20853,0.12134 0.31279,0.18202 -5.48798,-0.20287 -10.98165,-0.2867 -16.46393,-0.6086 -0.21226,-0.0125 0.34291,-0.38079 0.54834,-0.32593 4.38277,1.17046 8.6821,2.63355 13.02315,3.95033 0.43227,-0.28881 1.67223,0.22364 1.75947,-0.36924 0.94005,-6.38835 -6.99649,-6.78232 -11.94006,-6.49132 -1.24901,0.0735 -2.37813,2.72849 -1.38451,3.48884 3.75681,2.87481 8.72957,3.64791 13.09435,5.47186 -1.56687,-1.01798 0.61484,2.08783 0.57266,1.54136 -0.1036,-1.34202 0.52249,-3.47952 -0.73041,-3.97143 -4.05051,-1.59029 -11.61322,-5.54268 -12.9781,-1.41075 -1.11763,3.38341 8.31139,7.6081 12.46457,9.55196 0.11293,-0.69656 0.31831,-1.85924 0.24903,-2.40112 -0.11176,-0.87398 -0.59106,-1.67481 -0.69848,-2.54934 -0.0654,-0.53229 0.57384,0.96818 0.57013,1.50446 -0.10353,14.97316 -1.15336,-1.42939 -0.35784,8.90407 2.99198,-1.63005 -1.17888,-2.92797 -0.13187,-4.81071 0.18906,-0.33997 0.37076,0.68403 0.56176,1.02291 2.45706,4.35944 2.85632,2.46022 -0.0877,5.74306 -0.0278,0.23465 -0.3191,0.72245 -0.0835,0.70396 0.6682,-0.0525 0.49261,-1.59677 0.24675,-1.73451 -0.24137,-0.13523 -0.6662,0.24038 -0.6497,0.51657 0.0615,1.0299 1.44217,3.65512 1.87986,4.55688 -0.46177,0.26443 -1.08613,0.35324 -1.38531,0.79329 -0.13324,0.19596 0.4171,0.33462 0.6496,0.28881 0.16732,-0.033 -0.2976,-0.19286 -0.38066,-0.3418 -0.37642,-0.67497 -1.57728,-2.59266 -0.98138,-2.10054 2.29935,1.89891 1.92691,2.67895 1.95735,4.98938 0.0175,0.39277 0.26676,0.84862 0.0526,1.17831 -0.25625,0.39441 -0.77798,0.62548 -1.24704,0.66021 -0.25234,0.0187 -0.72111,-0.34495 -0.54587,-0.52746 0.35606,-0.37085 1.06385,-0.74818 1.47739,-0.44275 0.36109,0.26668 -0.2368,0.86849 -0.299,1.31305 -0.0723,0.5169 -0.0689,1.04159 -0.10327,1.56239 0.0439,1.83051 0.16667,0.526 -0.3002,1.98055 -0.024,0.0748 0.20755,-0.007 0.22502,0.07 0.0524,0.22965 -0.002,0.47182 0.0196,0.70637 0.0343,0.37156 0.0988,0.73973 0.14815,1.1096 0.23515,1.20582 0.55207,1.18258 -0.54184,2.00275 -0.2122,0.1591 -0.94758,0.45498 -0.74187,0.28757 0.48632,-0.39577 1.14701,-0.5548 1.60129,-0.98697 0.11852,-0.11276 -0.43839,-0.23179 -0.485,-0.075 -0.2146,0.72198 -0.1084,1.50248 -0.16259,2.25372 1.85597,-0.58129 0.42996,5.06151 -0.89705,2.82636 -0.79416,-1.33764 -0.62876,-3.05131 -0.80514,-4.59691 -0.082,-0.71885 -0.30357,-2.81084 0.0329,-2.1703 1.24398,2.36846 1.85426,5.01897 2.7814,7.52846 -0.20458,1.26449 -0.29518,2.55278 -0.61374,3.79347 -0.15125,0.5891 -0.56161,1.08157 -0.78336,1.64792 -0.12277,0.31353 0.50151,-0.54974 0.48505,-0.88605 -0.0652,-1.33199 -0.67668,-2.60239 -0.72112,-3.93524 -0.0284,-0.85218 -0.15079,-3.0507 0.5063,-2.50735 1.02687,0.84913 0.73781,2.56077 1.10671,3.84116 1.67816,4.9221 2.76515,4.77001 0.16071,9.52035 -0.34935,0.63721 -1.45942,2.06989 -1.6877,1.37999 -0.54995,-1.66203 0.29166,-3.48926 0.41188,-5.23577 0.23571,-3.42435 -0.46959,-4.19167 0.54066,-2.76846 1.14229,3.10179 2.47801,5.55112 1.59955,9.12096 -0.35696,1.45059 -1.4473,2.65 -2.46787,3.7409 -0.28051,0.29984 -0.0284,-0.84179 0.11545,-1.22637 1.38715,-3.7088 2.96929,-3.32132 0.89544,-3.52273 1.07537,-0.45899 2.40823,-2.21255 3.22611,-1.37698 0.897,0.91638 -0.5888,2.49646 -0.91689,3.73611 -0.71981,2.71974 -0.88287,5.66941 -2.22657,8.14117 -0.43042,0.79176 -2.36535,1.60856 -2.6007,0.73865 -0.35614,-1.31639 4.26174,-4.23988 4.80902,-4.63269 -0.23981,0.16157 -0.831,0.21795 -0.71942,0.48472 1.2857,3.07401 4.00349,1.50322 0.93167,6.06839 -1.36632,2.03055 -1.72164,-1.22972 -1.57538,-1.20764 0.63975,0.0966 1.03421,0.77771 1.55131,1.16657 -0.43771,0.13001 -1.65125,0.0832 -1.31313,0.39004 0.87693,0.79587 2.75215,0.32218 3.27089,1.38676 0.52687,1.08127 -0.62505,2.32364 -0.89137,3.4966 -0.066,0.29058 0.25938,1.75827 -0.81757,1.27438 -0.44185,-0.19854 -0.28386,-0.9263 -0.42579,-1.38945 0.50732,0.25869 1.27773,0.26163 1.52195,0.77607 0.30431,1.45101 0.60863,2.90202 0.91295,4.35303 -0.17088,0.11771 -0.46423,0.15137 -0.51264,0.35314 -0.0746,0.31097 -0.0197,1.16731 0.20293,0.93768 0.53507,-0.55203 -0.44103,-2.69717 0.51725,-0.11439 -1.96064,2.62819 0.42905,-1.23618 1.44913,4.04451 0.10691,0.55341 -1.23294,-0.66979 -1.66308,-0.30556 -0.35302,0.29891 0.0294,1.27078 0.49122,1.29784 0.98731,0.0579 4.55795,-3.468 0.13499,0.57992 1.92153,-0.0215 0.7153,-0.35975 1.72474,1.87144 0.0474,0.10477 0.37542,0.0674 0.30608,0.15918 -0.57044,0.75474 -1.89954,1.09939 -1.97036,2.0428 -0.071,0.94567 0.7555,1.98768 1.64261,2.32289 0.57103,0.21577 -0.18889,-1.20618 -0.28334,-1.80926 0.20846,-0.70542 0.55452,-1.38411 0.62538,-2.11626 0.0441,-0.45575 -0.25635,0.90458 -0.5427,1.26187 -0.10816,0.13497 -0.5699,-0.10562 -0.51557,0.0586 0.82179,2.48368 1.70867,4.96894 2.94237,7.27588 0.14846,0.27761 0.49705,-0.46811 0.53088,-0.7811 0.0817,-0.75616 -0.13381,-1.51524 -0.20071,-2.27286 -0.45865,1.30512 0.0716,0.37839 -2.04035,-0.52375 -2.28215,-0.97486 -8.06099,-4.89351 -6.94749,-2.6757 1.974,3.93174 6.51604,5.92188 9.95495,8.66582 0.41022,0.32733 1.18435,0.89353 1.50106,0.47505 0.45569,-0.60214 -0.0999,-1.50697 -0.14988,-2.26045 0.10973,0.42614 0.62417,0.9519 0.32918,1.27843 -0.24765,0.27413 -0.41038,-0.65192 -0.73368,-0.83068 -1.00806,-0.55736 -2.41046,-2.18802 -3.1866,-1.33687 -0.73684,0.80806 1.95401,1.07472 2.67948,1.89301 3.34703,3.77531 -0.046,3.48584 4.19276,2.9404 -4.44059,6.40921 -0.62396,2.29942 -2.00954,1.57901 -2.60419,-1.35399 -5.20076,-3.00044 -8.10117,-3.45067 -1.48592,-0.23066 -5.61901,0.93026 -4.24209,1.53461 13.25709,5.81866 14.36944,-2.23948 13.27993,3.63263 -2.7851,4.11858 3.10034,1.78313 2.55533,1.04209 -0.83391,-1.13385 -2.06979,-1.90882 -3.06871,-2.90037 -0.31649,-0.31416 -1.11889,-1.38558 -0.87378,-1.01304 2.90886,4.42117 1.5747,3.50301 4.01595,4.84443 0.48035,0.81656 1.06606,1.5797 1.44104,2.4497 0.0478,0.11099 -0.27012,0.15144 -0.35639,0.0668 -0.60382,-0.59252 -0.95219,-1.42264 -1.59079,-1.97751 -0.37708,-0.32763 -1.80684,-0.84763 -1.3739,-0.59845 5.5251,3.17992 3.13234,0.42936 6.09376,6.03358 -4.77218,-3.33771 0.56365,0.53751 -0.0142,-0.3903 -0.37907,-0.60859 -1.64754,-0.48894 -1.79083,-1.19147 -0.10855,-0.53221 1.20465,-0.0861 1.60511,0.28091 0.25691,0.23544 -0.30674,0.70888 -0.1736,1.03092 0.48688,1.17767 1.30496,2.18927 1.95744,3.28391 -0.35693,2.25075 -0.7723,7.93487 -2.35601,-2.07798 -0.10568,-0.66814 0.23684,-2.14667 0.8428,-1.84603 0.68811,0.34139 -0.43686,1.73345 0.0785,2.30309 3.85716,4.26378 1.85798,-4.02747 2.86074,3.19642 0.15172,0.51193 0.27488,1.0332 0.45515,1.53578 0.0927,0.25831 0.0905,0.69427 0.3611,0.73985 0.22099,0.0372 0.22457,-0.43277 0.17064,-0.65029 -0.0691,-0.27854 -0.49597,-0.41058 -0.50477,-0.69742 -0.0216,-0.70515 0.15863,-1.41901 0.41971,-2.0744 0.0951,-0.23863 0.0683,0.50917 0.10239,0.76376 0.50734,1.21378 0.77194,2.56058 1.52201,3.64134 0.40316,0.58091 1.44983,0.5159 1.79246,1.13445 0.16448,0.29692 -0.76963,0.81779 -0.88739,0.49945 -0.2621,-0.70852 0.0479,-1.52271 0.23846,-2.25372 0.0645,-0.24746 0.29963,-0.73988 0.50039,-0.58149 0.45054,0.35545 0.49036,1.03771 0.73554,1.55657 0.99169,0.8831 1.65755,2.07977 2.635,2.97324 0.3423,0.31288 1.00289,1.15917 1.18318,0.7319 0.20423,-0.48397 -0.60822,-0.86062 -0.96693,-1.24436 -0.0727,-0.0777 0.0106,0.37713 0.09,0.30627 0.64459,-0.5753 1.15312,-1.28693 1.72968,-1.93039 0.23399,1.61368 -0.15967,3.636 1.67087,4.44946 0.79254,0.35219 3.09332,1.18838 2.55104,0.51155 -0.86973,-1.08553 -2.5313,-1.17718 -3.69493,-1.93927 -0.1189,-0.0779 0.19839,-0.27966 0.33895,-0.25865 0.9594,0.14343 1.87802,0.48698 2.81703,0.73047 -0.81924,-0.42332 6.98875,3.24314 4.97911,3.83444 -1.09546,0.32232 -1.31769,-2.19117 -2.43935,-2.40517 -1.91223,-0.36482 -3.84101,1.012 -5.77986,0.83707 -0.44925,-0.0405 -0.34734,-1.28288 0.0988,-1.34962 2.69773,-0.40358 5.455,0.0738 8.1825,0.11075 5.13031,5.92558 5.86377,5.19323 -4.35245,2.35832 -0.29289,-0.0813 -0.96601,-0.35779 -0.72887,-0.54794 0.60835,-0.48782 1.46335,-0.69517 2.24259,-0.66587 2.88456,0.10847 5.72868,0.71555 8.59303,1.07333 -2.86678,-1.54947 7.38772,4.11335 5.3812,3.41526 -1.68301,-0.58554 -3.03978,-1.94744 -4.7467,-2.45908 -1.48324,-0.44459 -3.0987,-0.13578 -4.63195,-0.35211 -0.18581,-0.0262 0.32733,-0.24449 0.51433,-0.22886 2.65677,0.22202 5.29544,0.62376 7.94316,0.93564 0.85561,0.32454 1.71121,0.64907 2.56681,0.97361 -0.4051,-0.0641 -1.4287,-0.54252 -1.21531,-0.19226 0.36015,0.59115 1.85481,1.7807 1.7649,1.09435 -0.30455,-2.3248 -7.96578,-3.28405 -6.0889,-2.73869 2.50191,0.72698 5.04356,1.30951 7.56534,1.96426 3.39102,0.13716 1.75437,-0.51976 4.09647,2.11608 0.10489,0.11805 -0.10095,-0.38847 -0.25865,-0.39693 -2.8616,-0.15363 -5.73196,-0.008 -8.5968,-0.0785 -0.326,-0.008 -1.28663,-0.10112 -0.96549,-0.15784 3.34928,-0.59153 6.7327,-0.97018 10.09905,-1.45528 -4.04893,-3.24557 5.04246,2.57853 3.58473,2.51271 -2.3961,-0.10819 -4.68197,-1.18391 -7.07787,-1.29646 -0.67858,-0.0319 1.07076,1.00726 1.74897,1.04615 4.13307,0.23702 3.99348,-0.0503 6.21293,-1.81903 1.95536,1.86397 -4.74401,-0.77642 -3.59675,-0.40323 2.51544,0.81824 5.14952,1.25135 7.64369,2.13231 0.37461,0.13232 0.47968,1.05393 0.826,0.85925 0.34426,-0.19353 -0.72393,-1.17337 -0.33062,-1.13773 0.62824,0.0569 0.95449,0.825 1.43173,1.2375 3.83227,-2.5664 -6.64003,-1.41432 -4.92754,-1.46008 2.56327,-0.0685 5.13779,0.0236 7.68652,0.30467 0.05,0.006 3.53107,1.27934 0.67305,2.23277 -2.13089,0.71087 -4.45171,0.60529 -6.67757,0.90793 3.19276,-0.90457 6.38551,-1.80915 9.57827,-2.71372 0.1581,0.64532 -0.14128,2.18593 0.47432,1.93597 0.99593,-0.40439 2.69574,-2.73957 1.62189,-2.78713 -1.6786,-0.0743 -2.74529,1.97621 -4.2758,2.66961 -0.21714,0.0984 -0.74088,-0.56069 -0.50998,-0.50138 3.6551,0.93889 7.24703,2.10847 10.87054,3.1627 2.27886,6.10188 -0.88811,-2.58285 -1.78105,-3.18278 -1.44854,-0.97322 -3.49903,0.26123 -5.23473,0.0802 -0.26107,-0.0272 -0.67679,-0.68488 -0.41477,-0.66936 2.8631,0.16964 5.87826,0.0503 8.52717,1.15002 1.33009,0.5522 1.72245,2.30854 2.58368,3.46282 0.40095,0.0978 1.60134,0.40062 1.20284,0.29331 -3.31781,-0.88323 -6.63562,-1.76645 -9.95342,-2.64968 0.1542,0.0344 0.3236,0.17848 0.4626,0.10336 3.31678,-1.79256 1.59317,-4.40265 8.80793,-2.17776 2.08208,0.64208 3.07405,3.08863 4.61108,4.63294 0.54661,0.28502 2.07121,1.29543 1.63982,0.85507 -1.1818,-1.20637 -2.29248,-2.7899 -3.93197,-3.19489 -7.12662,-1.76042 -11.81129,0.96534 -7.22693,-0.19818 1.44706,-0.36727 2.83367,-1.06351 4.32262,-1.17247 2.80278,-0.20512 5.61828,0.15959 8.42742,0.23939 5.32737,6.88171 1.22693,0.78332 0.85915,0.71881 -2.54634,-0.44667 -5.16889,0.18163 -7.75402,0.15988 -1.06958,-0.009 2.13313,-0.20206 3.20274,-0.19819 6.98087,0.0253 5.45815,-1.57476 7.43846,1.60303 -2.53367,-2.5388 0.92152,0.45198 -6.3414,-0.41 -0.43564,-0.0517 0.37555,-0.89293 0.78167,-1.05881 0.85194,-0.34798 1.8147,-0.39108 2.73487,-0.37752 5.58562,0.0823 4.46435,-0.27771 7.32508,1.11884 -2.24868,0.0892 -4.51595,0.56984 -6.74604,0.26777 -0.38734,-0.0525 -0.0992,-0.82867 0.0932,-1.16894 0.38713,-0.68481 0.78026,-1.80691 1.56584,-1.7657 3.05402,0.16023 5.83847,1.97736 8.87814,2.31363 0.54002,0.0597 -0.32014,-1.16561 -0.80022,-1.42 -1.43717,-0.76154 -3.1019,-0.9797 -4.65285,-1.46955 0.74993,0.67783 1.58234,1.27431 2.24978,2.03349 1.94522,2.21261 -4.20114,-0.73007 0.52638,-1.72941 2.62476,-0.55484 5.34967,1.12254 8.01042,0.77962 1.57347,-0.20279 -3.05577,-0.85822 -4.60066,-1.21907 -0.19182,-0.0448 0.35127,0.17835 0.52691,0.26753 2.73101,1.05822 6.35421,-2.63043 8.6805,-0.88468 1.35532,1.01709 -3.08583,1.42059 -4.52935,2.30805 -0.26297,0.16167 0.68125,0.10352 0.92167,-0.0901 2.64454,-2.12966 0.74789,-2.78695 3.02861,-1.30091 0.46963,-0.34855 0.82993,-0.96298 1.4089,-1.04565 10.33957,-1.47633 5.52264,1.41179 -0.0607,0.20225 -0.60867,-0.13185 0.8466,-0.98861 1.4327,-1.19922 0.35049,-0.12595 0.70748,0.34392 1.077,0.29738 0.83668,-0.10536 1.61328,-0.49183 2.41991,-0.73774 -9.22591,-8.48102 13.59947,0.54916 10.31875,1.73292 -3.22831,1.16486 -6.88581,0.0471 -10.28174,0.54363 -0.31424,0.0459 -0.15769,1.18265 0.0594,0.95088 3.86801,-4.12905 0.84473,-5.01346 5.17621,-1.81943 6.81557,-2.86443 4.60714,-3.97559 9.42437,0.0963 0.1345,0.11369 0.34264,0.61075 0.22925,0.476 -0.57297,-0.68093 -0.73058,-2.04101 -1.61656,-2.12472 -2.19033,-0.20695 -4.28319,1.03081 -6.45824,1.36178 -0.54656,0.0832 -1.10243,-0.0849 -1.65365,-0.12742 1.62686,-0.85188 3.04693,-2.6562 4.88058,-2.55565 3.27661,0.17967 5.98232,3.3254 9.26385,3.33125 1.1847,0.002 -0.18129,-2.86495 -1.27635,-3.31701 -2.16809,-0.89505 -4.7178,-0.47309 -7.0358,-0.11448 -0.66059,0.1022 -2.05037,1.21643 -1.41423,1.42176 1.24485,0.4018 2.58248,-0.4186 3.87373,-0.6279 2.58271,-0.11063 5.16542,-0.22127 7.74814,-0.3319 0.41281,0.17385 1.68621,0.50985 1.23843,0.52156 -2.43392,0.0637 -4.89329,-0.76163 -7.29521,-0.36319 -1.12066,0.18591 -2.24825,1.00325 -2.73903,2.02774 -0.27603,0.57621 0.34292,1.71882 0.97796,1.6485 4.30843,-0.47713 8.41071,-2.10262 12.61606,-3.15393 0.50991,-3.28636 0.52163,-0.96123 -6.31888,-0.77204 -0.84671,0.0234 -1.70719,0.0647 -2.5394,-0.0931 -0.26263,-0.0498 0.50145,-0.19359 0.76405,-0.2435 3.00414,-0.57092 6.10471,-0.72686 9.02995,-1.61778 1.7438,-0.5311 -3.62889,0.35029 -5.44334,0.52543 -1.28769,-0.74511 1.28402,-0.80934 1.15642,-0.41963 -0.23196,0.70841 -1.60524,1.89163 -1.88624,1.20121 -0.33186,-0.81537 0.64206,-1.93485 1.48677,-2.18269 1.18974,-0.34907 2.43942,0.44562 3.65826,0.67313 2.89737,0.54083 5.79358,1.08792 8.69037,1.63188 -4.37234,0.98119 -8.66477,3.45106 -13.11702,2.94356 -1.53009,-0.1744 0.98273,-2.96514 1.8671,-4.22588 0.64694,-0.92229 1.48416,-2.05291 2.6064,-2.15152 1.33893,-0.11765 2.36233,1.494 3.70244,1.59716 2.75782,0.21229 6.23478,-2.5482 8.27038,-0.67552 2.31188,2.12684 0.7742,6.23487 1.1613,9.35231 -4.88583,-0.0157 -10.21482,1.98618 -14.65749,-0.0471 -6.55957,-3.00214 4.22362,-9.85164 4.62789,-9.95837 2.75409,-0.72709 5.70038,0.10052 8.54526,-0.0422 0.15531,-0.008 0.39513,-0.42711 0.24224,-0.3987 -2.6591,0.49409 -5.27096,1.21519 -7.90645,1.82279 -0.92786,1.20065 -4.1674,4.22446 -2.78358,3.60194 1.67656,-1.53745 3.35311,-3.07491 5.02967,-4.61236 -0.28434,-0.14709 -1.00749,-0.16088 -0.85301,-0.44127 0.30699,-0.55724 1.00553,-0.90308 1.63688,-0.98154 7.72432,-0.95999 5.9344,-1.31561 9.94211,3.14791 5.098,1.76931 9.44456,3.09646 -11.61963,-0.28667 -0.49947,-0.0802 0.61738,-0.87037 1.08656,-1.05953 4.77791,-1.92639 13.26812,-1.49244 12.40614,-0.97557 -3.03981,1.82273 -7.03568,0.8662 -10.55353,1.2993 5.31187,-3.47718 3.34575,-3.17171 10.53541,-3.15046 0.67177,0.002 2.44852,-0.0338 1.96772,0.43537 -3.46732,3.38333 -8.12354,5.40974 -11.50911,8.87488 -0.48901,0.5005 0.99453,2.49588 1.07823,1.80116 0.36541,-3.03291 -0.12754,-6.10835 -0.19132,-9.16252 3.66892,-0.53533 7.34916,-0.99808 11.00675,-1.60599 0.77233,-0.12836 1.49986,-0.46339 2.27064,-0.60074 0.10553,-0.0188 0.36961,0.0766 0.28704,0.14495 -3.87509,3.20824 -8.04654,6.05852 -11.81099,9.39589 -0.2704,0.23972 0.0374,1.44227 -0.0101,1.08404 -0.33698,-2.54355 -0.57314,-5.09944 -0.8597,-7.64916 4.31118,-1.19584 14.03707,-9.0517 15.31763,-2.09763 0.041,0.22272 -0.14228,0.51652 -0.3609,0.57561 -3.24183,0.87629 -7.06889,0.27742 -9.83571,2.18059 -1.47929,1.01754 0.59021,4.49956 -1.02267,5.28842 -1.50196,0.73461 0.28542,-3.33175 0.42813,-4.99763 1.23981,-2.21593 2.89407,-5.84463 5.68511,-6.43677 7.39616,-1.56915 6.14928,-0.14201 7.51239,2.8554 0.1438,0.31621 0.012,-0.96596 -0.33474,-0.9869 -2.57599,-0.15554 -5.15058,0.33346 -7.72586,0.50019 1.24928,-4.06138 8.62605,-0.46894 9.50284,-0.19165 0.37097,0.11733 0.70696,0.82579 1.01112,0.58316 0.53451,-0.42637 0.4551,-1.28951 0.68266,-1.93426 1.01193,0.38208 -4.39155,14.69302 -5.40349,14.31093 l 0,0 c -0.58504,0.44004 -1.03328,1.19832 -1.75514,1.32012 -0.36326,0.0613 -0.0926,-1.0918 0.27514,-1.07041 1.68099,0.0978 3.24577,1.84014 4.86239,1.36918 1.01629,-0.29607 0.15522,-2.29025 0.89572,-3.04666 0.38846,-0.3968 0.3641,1.04922 0.54614,1.57383 -2.77728,0.56486 -5.50582,1.4802 -8.33185,1.69458 -0.57449,0.0436 -0.87587,-0.84546 -1.44185,-0.95314 -0.27809,-0.0529 -0.92418,0.55005 -0.64118,0.55684 3.52049,0.0845 6.33307,-0.0229 8.78477,-2.86172 0.54063,-0.62599 0.38497,-1.60884 0.57745,-2.41325 0.1654,-1.50219 0.4958,-6.01781 0.49621,-4.50655 5.8e-4,2.19067 1.14572,5.10247 -0.49566,6.55329 -2.95424,2.61124 -7.4628,2.5481 -11.20525,3.78914 -1.0009,0.33191 -2.05314,1.34123 -3.0239,0.92941 -0.66722,-0.28305 -0.5129,-1.7763 0.0941,-2.17229 3.18675,-2.07881 6.94056,-3.12027 10.41083,-4.6804 -0.22862,-1.96787 -1.42336,-4.0649 -0.68585,-5.90362 0.36808,-0.91769 2.88354,1.06545 2.30486,1.86718 -3.19351,4.42445 -7.55898,7.91731 -11.8239,11.32095 -0.38617,0.30818 -0.60616,-0.82537 -1.04629,-1.04983 -0.24881,-0.12689 -0.55526,0.061 -0.83288,0.0915 3.22581,-1.15947 6.45162,-2.31893 9.67744,-3.4784 -0.17503,-2.86563 -0.73565,-5.73365 -0.52508,-8.59689 0.0734,-0.99849 1.56541,2.0622 0.9477,2.8501 -2.80225,3.57435 -6.96795,5.83947 -10.23435,8.99529 -0.19307,0.18653 -0.17127,0.8227 0.0962,0.79961 3.17204,-0.27378 5.05596,-1.55997 7.74356,-2.95817 -4.15257,0.87107 -9.13941,-0.0309 -12.45771,2.61321 -2.35179,1.874 6.11832,0.9132 9.0205,0.1257 0.95364,-0.25877 0.68853,-1.85812 0.91149,-2.82076 0.0274,-0.11821 -0.18309,0.19689 -0.3044,0.19965 -13.42058,0.3057 -12.90533,-4.23991 -12.98481,1.45822 3.34838,4.15822 2.42783,5.116 9.03331,1.79669 0.42002,-0.21106 -0.22004,-1.22629 -0.69011,-1.22983 -0.7002,-0.005 -2.16728,1.7471 -1.71597,1.21172 2.37203,-2.81384 8.89746,-8.43496 0.81713,-1.29239 -2.69917,1.12154 -5.19656,3.00696 -8.09749,3.36462 -0.77695,0.0958 -0.99495,-1.98013 -0.29462,-2.32993 2.49793,-1.24767 6.66836,1.55333 7.78386,-2.62798 0.40897,-1.53298 1.18952,-4.29863 -0.33205,-4.74817 -4.39049,-1.29715 -9.14758,0.39744 -13.72136,0.59616 0.46823,2.75396 -0.5654,6.28141 1.4047,8.26187 1.73838,1.74752 4.91022,0.46809 7.37334,0.56234 0.20339,0.008 0.40326,-0.12112 0.55295,-0.25904 0.19891,-0.18327 0.32732,-0.4332 0.45633,-0.67091 0.57847,-1.06592 2.87617,-3.26414 1.66373,-3.23563 -5.03496,0.11837 -9.79204,2.36121 -14.68807,3.54182 2.68767,0.52293 5.33335,1.35437 8.063,1.56877 0.47188,0.0371 1.00096,-0.3936 1.14055,-0.84588 0.11441,-0.3707 -0.20969,-1.17178 -0.56553,-1.01723 -1.16613,0.50651 -1.86325,1.73597 -2.87172,2.51018 -0.0937,0.072 0.0384,-0.23315 0.0576,-0.34972 -0.42704,-0.34393 -0.85409,-0.68786 -1.28114,-1.0318 -1.79035,0.54896 -7.24141,1.73913 -5.37106,1.64687 2.70944,-0.13365 5.33775,-1.01611 7.94255,-1.77371 0.39113,-0.11376 -0.84947,-0.37849 -1.20795,-0.18504 -5.60496,3.02469 -1.22728,5.58031 -12.06585,2.55027 -0.95085,-0.26582 -0.58087,-1.88724 -0.8713,-2.83087 4.05961,-0.74402 8.0554,-2.05492 12.17882,-2.23207 0.61343,-0.0264 -0.26782,1.23075 -0.61761,1.73538 -0.91069,1.31381 -1.59314,3.15403 -3.11364,3.64751 -2.9843,0.96855 -6.28729,0.78049 -9.40346,0.41492 -0.49991,-0.0586 -0.4081,-1.46305 0.0933,-1.50714 2.14613,-0.18871 4.26333,0.62442 6.39499,0.93662 0.36019,-0.70655 1.87073,-2.05196 1.08056,-2.11965 -0.96599,-0.0828 -1.16125,1.72146 -2.07897,2.03413 -2.53356,0.86319 -5.25117,1.65965 -7.912,1.36982 -1.57638,-0.17171 -5.48118,-2.27525 -3.94315,-2.66114 2.8941,-0.72613 5.86834,1.74484 8.83586,1.43355 1.29796,-0.13616 1.91427,-1.77443 2.8714,-2.66164 -3.27095,2.89686 -4.77489,4.62983 -10.57264,5.24174 -1.49659,0.15795 -2.70558,-1.33111 -3.9791,-2.1329 -0.18268,-0.11501 -0.50762,-0.65708 -0.31096,-0.56806 5.11335,2.31467 0.31884,2.24559 7.52646,0.61568 -0.59453,-0.41546 -2.05723,-0.57466 -1.7836,-1.24638 0.29142,-0.71542 2.06214,-0.79161 2.31666,-0.0622 0.25392,0.72764 -1.09668,1.25857 -1.85845,1.37533 -3.35153,0.51369 -6.79181,0.0884 -10.16129,0.46694 -0.3582,0.0402 0.61205,0.38093 0.91807,0.57139 1.71154,0.0687 3.42307,0.13743 5.1346,0.20614 0.10609,0.23806 0.55638,0.60828 0.31825,0.71419 -4.66858,2.07636 -1.14792,-0.18758 -2.61837,0.16773 -2.57252,0.62161 -5.3444,0.72644 -7.70159,1.92975 -1.32866,0.67825 3.04066,0.15975 4.46665,-0.27837 0.51075,-0.15692 -0.97894,-0.42855 -1.46841,-0.64282 -4.40749,2.5139 -0.56864,0.88983 -1.44344,-0.31162 -0.29103,-0.3997 -1.0099,-0.30755 -1.4763,-0.14349 -2.48809,0.87516 -5.0346,1.75054 -7.23347,3.20707 -1.1291,0.74791 2.77274,-0.32167 3.93275,-1.02068 0.39081,-0.2355 -0.81657,-0.40739 -1.22485,-0.61109 -1.93236,1.18697 -6.9013,4.71458 -8.36733,-0.13249 -0.61227,-2.02433 4.26505,0.0604 6.33318,-0.38189 0.35677,-0.0763 -0.37268,-0.89724 -0.72855,-0.81683 -0.8695,0.19649 -1.63643,0.81436 -2.22465,1.48416 -0.39814,0.45336 -0.389,1.14231 -0.5835,1.71347 -2.32325,-0.17094 -4.65832,-0.22292 -6.96974,-0.51283 -1.0781,-0.13522 -4.1963,-0.40202 -3.17005,-0.75895 2.25393,-0.78391 4.76035,-0.35695 7.13227,-0.6191 0.19421,-0.0215 0.71662,-0.31163 0.53965,-0.22882 -0.47848,0.22391 -0.9222,0.57233 -1.44441,0.65221 -2.88709,0.44169 -5.81033,0.6014 -8.71549,0.9021 -0.17724,0.28929 -0.86933,0.83424 -0.53173,0.86788 1.51898,0.15136 3.03809,-0.30187 4.55565,-0.4669 0.15453,-0.0168 0.5274,0.0614 0.45968,-0.0785 -0.13191,-0.2725 -0.44673,-0.55096 -0.74745,-0.51597 -11.25427,1.30958 -3.29703,1.80118 -10.14529,1.11444 1.28668,-2.1895 -0.41325,0.265 5.23086,-0.45096 0.5329,-0.0676 1.81784,-0.95282 1.28123,-0.97745 -5.69006,-0.26122 -8.07294,2.51983 -11.8508,-1.02844 -0.39899,-0.37474 1.03526,0.35598 1.55289,0.53396 1.8622,-5.6e-4 3.72441,-10e-4 5.58661,-0.002 0.67009,-0.31576 1.28211,-0.81125 2.01027,-0.94726 0.32908,-0.0615 -0.387,0.63826 -0.71499,0.70531 -3.21707,0.65762 -6.50895,1.98405 -9.74598,1.43307 -1.70514,-0.29023 -2.16951,-2.7803 -3.62837,-3.70952 -0.40208,-0.2561 -0.87718,0.37358 -1.31577,0.56037 6.19977,3.58937 1.93164,2.34299 8.93408,1.43403 0.11855,-0.0154 0.0672,0.34018 -0.0514,0.35491 -0.68773,0.0854 -1.39442,0.0288 -2.07705,-0.0907 -11.14203,-1.95033 -13.59675,-0.17323 -10.0661,-2.47476 6.54403,5.56969 -5.596,-4.123 8.76563,2.72552 0.84652,0.40367 -1.70455,1.05713 -2.63887,0.97588 -7.74404,-0.67338 -7.84413,-2.14077 -14.16841,-5.78049 -0.47193,-0.27161 0.8656,0.66081 1.2984,0.99121 3.5853,0.87254 7.33335,1.23853 10.7559,2.61762 0.75044,0.30238 -1.50809,0.60129 -2.29438,0.79187 -3.70007,0.89683 -6.75095,3.04795 -9.62122,0.14033 -1.92005,-1.94504 5.16536,-13.16106 7.61153,-3.04831 -14.35828,2.30282 -3.13586,-0.18109 -9.40936,2.14546 -0.66253,0.24571 -2.74806,0.49628 -2.04438,0.56071 1.65765,0.15179 6.45337,0.4931 4.98525,-0.29142 -2.07968,-1.11132 -4.69159,-0.48611 -7.02853,-0.80045 -0.16902,-0.0227 -0.31167,-0.13855 -0.46751,-0.20783 1.89421,0.65522 -0.43394,-0.12252 -1.21747,-0.65261 -0.39311,-0.26596 -1.42479,-0.98945 -0.95488,-1.05625 1.50268,-0.21363 5.53074,-0.58297 4.5201,0.54941 -1.10329,1.23618 -3.32849,-0.26605 -4.97056,-0.0447 -0.51163,0.069 -0.84689,0.59066 -1.27033,0.88599 -0.28446,0.11298 -1.15399,0.3966 -0.85339,0.33896 1.40362,-0.26914 2.85184,-0.43577 4.17504,-0.97588 0.20955,-0.0855 -0.10534,-0.558 -0.32877,-0.59407 -2.58229,-0.41693 -5.20935,-0.48043 -7.81402,-0.72064 -0.36527,0.0981 -0.71949,0.33214 -1.09581,0.29433 -0.20417,-0.0205 0.33584,-0.23588 0.50377,-0.35382 2.78791,-0.1635 5.57554,-0.33186 8.36373,-0.49049 0.9779,-0.0556 -1.95339,0.18983 -2.93284,0.1815 -3.09945,-0.0264 -6.20362,-0.0512 -9.29431,-0.28552 -0.49408,-0.0375 -0.93214,-0.71201 -1.39083,-0.52463 -0.37744,0.15419 -0.54163,0.90764 -0.25391,1.19652 0.24184,0.24282 0.44199,-0.52386 0.66299,-0.78579 1.64174,0.19024 6.57777,0.59538 4.92523,0.57072 -2.2189,-0.0331 -7.26824,-0.54023 -9.80168,-1.40535 -0.46604,-0.15914 1.92617,0.27843 1.47521,0.0806 -0.51185,-0.22459 -3.80891,-0.73207 -1.64569,-0.32174 1.87208,0.40544 3.74314,0.81564 5.61625,1.21634 0.54858,0.11735 -1.08912,-0.27501 -1.64264,-0.36629 -2.00201,-0.33016 -4.09855,-0.24735 -6.02063,-0.89747 -1.88598,-0.63791 -3.41173,-2.06941 -5.21917,-2.90426 -0.69176,-0.31952 2.77864,3.18814 1.60328,1.62942 2.08307,0.0249 4.19332,0.41104 6.24921,0.0747 0.36921,-0.0604 -0.11836,-1.15717 -0.46671,-1.02072 -0.72735,0.28489 -0.72959,1.86317 -1.50768,1.79407 -3.40651,-0.30252 -6.63054,-1.70529 -9.86903,-2.80441 -0.78291,-0.26572 -2.89735,-0.95715 -2.13143,-1.26847 1.11137,-0.45174 2.35354,0.46658 3.53031,0.69987 1.85457,0.22248 3.72515,0.33784 5.56369,0.66745 0.68822,0.12339 -1.40398,0.0462 -2.09707,-0.0459 -2.23765,-0.29762 -4.46515,-0.67819 -6.67859,-1.12126 -1.54721,-0.30972 -3.01922,-1.06406 -4.59551,-1.13552 -0.56122,-0.0254 2.13793,2.75918 1.68488,0.0424 -0.18946,4.10733 0.26707,1.7104 -1.02726,0.25357 -1.12285,-1.26384 -2.35037,-2.48699 -3.79595,-3.36357 -0.25904,-0.15707 -0.74393,0.56791 -0.50574,0.75509 1.1418,0.89723 0.66192,-2.67567 0.82636,0.49729 -0.67206,-0.0469 -1.44553,0.21749 -2.01618,-0.14059 -0.58727,-0.3685 -0.61555,-1.25743 -1.05991,-1.78963 -0.7677,-0.91946 -1.66395,-1.72578 -2.54909,-2.53281 -0.11852,-0.10806 -0.34446,-0.3214 -0.44069,-0.1931 -0.54323,0.72427 -1.96232,1.8882 -1.23056,2.4213 0.76733,0.55902 1.56971,-1.06829 2.35457,-1.60243 -0.32097,0.6019 -0.28136,1.83402 -0.96291,1.80571 -0.79807,-0.0331 -0.97708,-1.26399 -1.45226,-1.90603 -0.82822,-1.11903 -1.63744,-2.252 -2.4577,-3.37687 -0.35336,-0.48459 -0.56341,-1.11994 -1.06316,-1.45151 -0.17936,-0.119 -0.30591,0.42803 -0.1984,0.6145 0.51444,0.89229 1.29299,1.60359 1.93948,2.40539 -0.23686,0.0712 -0.49978,0.3429 -0.71057,0.21353 -0.75197,-0.46153 -1.24891,-1.24884 -1.91639,-1.82586 -0.82767,-0.7155 -1.99535,-1.11387 -2.56483,-2.04805 -0.51274,-0.8411 -0.33288,-1.94227 -0.46293,-2.91871 -0.0388,-0.29132 -0.32023,-0.78281 -0.0431,-0.88063 0.26583,-0.0938 0.16211,0.54 0.24317,0.81001 -0.0763,0.53873 -0.2425,1.07225 -0.22904,1.61621 0.002,0.093 0.33931,0.13018 0.27072,0.0674 -1.33739,-1.2241 -0.28625,1.68206 -1.81885,-2.57524 -0.46537,-1.29273 -2.82275,-9.55318 -0.98457,-4.00251 -0.10639,0.993 0.18145,2.11485 -0.31917,2.97899 -0.22567,0.38954 -0.65308,-0.67923 -0.75974,-1.1166 -0.0943,-0.38669 0.48267,-0.89652 0.20039,-1.17712 -0.91781,-0.91239 -2.61188,-0.89619 -3.35314,-1.95702 -0.76672,-1.09725 6.27642,-0.87091 1.64697,-3.6625 1.69546,1.75614 4.08311,3.45065 2.2058,6.77067 -0.61889,1.09452 -0.58417,-2.47462 -1.17535,-3.58435 -0.48388,-0.90833 -2.57209,-3.79963 -4.22824,-3.8128 -0.3658,-0.003 0.24761,0.68846 0.37142,1.03268 0.19291,-1.89175 0.0916,-3.19953 3.95324,1.6134 0.39866,0.49686 -1.48435,0.5345 -1.91008,0.0606 -11.04144,-12.28963 4.97117,0.59845 -4.88604,-5.60267 -0.2523,-0.15872 0.59422,-0.0478 0.89132,-0.0718 2.43525,-4.69372 2.43704,-5.76516 13.464,0.96012 1.49059,0.9091 -2.74374,2.91558 -4.4783,2.71655 -3.50149,-0.40177 -6.65249,-2.47182 -9.64304,-4.33689 -0.72406,-0.45156 -0.70179,-1.5557 -1.05269,-2.33355 -0.38348,-0.1627 -0.76695,-0.32541 -1.15043,-0.48811 0.46695,-0.85384 0.44651,-2.75201 1.40085,-2.5615 0.94424,0.18849 -0.27157,2.04327 0.20221,2.88151 0.52523,0.92924 3.58793,2.12435 2.53348,1.95852 -7.49133,-1.17821 -2.07261,-1.4868 -4.2229,-4.64955 -0.29773,-0.4379 -1.03898,-0.20522 -1.55847,-0.30783 -0.17572,-1.3551 -0.64248,-2.70374 -0.52716,-4.06531 0.0503,-0.59403 0.49983,-1.81335 0.9972,-1.48467 15.32681,10.12849 11.37566,10.24576 0.94115,5.58072 -3.49082,-1.56067 -2.85936,-1.65914 -2.48027,-4.28487 -0.62544,-1.37218 -1.66968,-2.62276 -1.87632,-4.11653 -0.14562,-1.05264 0.0492,-3.72195 0.8831,-3.06325 1.60922,1.27111 2.16867,3.62495 2.4066,5.66178 0.0675,0.57795 -1.16796,0.0663 -1.74563,-0.004 -0.38392,-0.0464 -0.94232,0.007 -1.10869,-0.34174 -0.57423,-1.20492 -0.60821,-2.5993 -0.91231,-3.89895 -0.39465,-1.15638 -0.76538,-2.32121 -1.18396,-3.46915 -0.0816,-0.22367 0.10323,0.46527 0.17178,0.69327 0.0464,0.15439 0.31268,0.53146 0.1725,0.45183 -0.39919,-0.22678 -0.85665,-0.49984 -1.01536,-0.93065 -0.17903,-0.486 3.28496,3.37992 1.13454,-1.06163 -3.01688,-0.8112 -0.41743,0.40931 -1.41804,-3.2636 -0.0728,-0.26726 -0.63457,0.42733 -0.80441,0.20851 -0.36249,-0.46702 -0.92928,-1.51763 -0.37859,-1.73268 0.57153,-0.22319 1.35719,0.84368 1.1639,1.42601 -0.16929,0.51003 -0.89292,-0.59824 -1.33938,-0.89735 0.13524,-0.36766 0.4763,-0.71766 0.40571,-1.10299 -0.20983,-1.1454 -0.72478,-2.21843 -1.20825,-3.27779 -0.22235,-0.4872 -1.03377,-0.81587 -0.8962,-1.33344 0.21005,-0.79027 0.95462,-2.04969 1.71646,-1.75261 2.20568,0.86011 -2.94574,4.55853 1.231,1.08821 -1.1181,-0.88252 -2.21868,-1.78771 -3.35431,-2.64756 -0.63555,-0.48122 -2.03385,-0.58069 -1.95731,-1.37418 0.92208,-9.55904 3.27831,1.67284 2.20344,-2.03802 -0.25337,-0.87473 -0.47671,-1.75789 -0.71507,-2.63684 1.22397,-1.30966 2.25861,-4.17867 -1.30671,-4.04306 -0.57074,0.0217 0.22344,1.25033 0.70111,1.56345 1.02237,0.67019 0.008,-7.77515 0.0138,-3.66733 0.0155,-1.64444 -0.54575,-3.39917 0.0466,-4.9333 0.65521,-1.69702 2.82971,-2.50451 3.48092,-4.20306 0.2093,-0.54592 -1.43695,-0.99139 -1.69125,-0.46493 -1.20383,2.49228 -1.48971,5.33987 -1.9793,8.06401 -0.0553,0.30782 0.31769,1.16722 0.37546,0.85985 0.19419,-1.03313 0.0371,-2.10213 0.0556,-3.1532 -0.57008,-0.92703 -1.75713,-1.69382 -1.71026,-2.7811 0.0818,-1.89807 1.43494,-3.52017 2.0593,-5.31448 0.31004,-0.89102 1.26543,-1.94777 0.7405,-2.73166 -0.46599,-0.6959 -1.06134,1.45124 -1.03732,2.28841 0.17612,6.13858 3.23228,0.69154 -0.83378,5.91691 -0.66885,-4.26757 -1.03716,-9.56395 -0.0636,-13.7522 0.10354,-0.44543 0.75695,0.73205 0.69181,1.18469 -0.74102,5.14949 -2.89373,-1.61496 0.28594,5.16557 0.051,0.50734 0.57845,1.80299 0.15295,1.52202 -1.15665,-0.76378 -2.41545,-1.82369 -2.67242,-3.18572 -0.33936,-1.79875 0.71174,-3.59115 1.05461,-5.38923 0.10166,-0.5331 0.3158,-1.0626 0.27893,-1.60406 -0.009,-0.13454 -0.37505,-0.22393 -0.39432,-0.0905 -0.0854,0.59203 0.0995,1.19219 0.14929,1.78828 1.23178,1.49116 2.90196,2.70956 3.69535,4.47347 0.31946,0.71022 -1.7609,-0.28674 -2.12243,-0.9765 -0.87186,-1.66338 -0.54795,-3.75481 -1.26684,-5.48978 -0.0644,-0.15547 -2.10946,-1.14739 -2.17749,-1.67958 -0.0482,-0.37691 0.38342,-0.65613 0.57514,-0.9842 0.37273,0.12525 0.72514,0.38692 1.11819,0.37575 0.14841,-0.004 -0.12465,-0.26958 -0.19163,-0.40208 -0.20584,-0.40725 -0.40267,-0.81954 -0.62676,-1.21703 -0.16463,-0.29202 -0.58837,-0.51803 -0.53829,-0.8495 0.0958,-0.63432 1.19309,-0.8222 1.04034,-1.61914 -0.2871,0.0379 -0.63068,0.2887 -0.86131,0.11357 -0.16509,-0.12536 0.36806,-0.23242 0.46041,-0.418 0.15625,-0.31401 0.33641,-0.67945 0.25551,-1.02073 -0.0974,-0.41106 -0.68713,-0.60906 -0.74116,-1.02804 -0.0504,-0.39102 0.31235,-0.72401 0.46852,-1.08602 -0.0836,-0.30313 -0.16719,-0.60626 -0.25078,-0.9094 -0.3779,0.17257 -1.16517,0.10347 -1.13369,0.51771 0.0302,0.39782 0.92824,0.46955 1.18555,0.16463 0.24892,-0.29497 -0.4585,-0.69946 -0.411,-1.08249 0.0674,-0.54315 0.92773,-0.96235 0.72777,-1.47182 -0.28462,-0.72518 -2.23429,-0.73082 -1.86055,-1.41434 0.53036,-0.96995 2.11257,-0.65222 3.16885,-0.97834 -0.23414,0.13535 -0.6881,0.13599 -0.70242,0.40606 -0.0373,0.70416 1.24186,2.25936 0.5729,2.03638 -4.41157,-1.47043 -0.83895,-2.86548 -0.39543,-4.27744 0.44541,-1.41797 -0.39556,-2.02622 -1.13369,-2.88177 0.34223,0.34032 1.23026,1.27585 0.74902,1.23912 -0.331,-0.0253 -0.51831,-0.4665 -0.61343,-0.78454 -0.23307,-0.77923 -0.22925,-1.61043 -0.34374,-2.41567 -0.0987,-0.69406 -0.52782,-1.4207 -0.29578,-2.08223 0.18126,-0.5168 0.90202,-0.62137 1.35304,-0.93206 0.79037,1.2421 0.38717,0.23144 -1.00784,2.42425 -0.0556,0.0874 0.28793,-0.0568 0.26731,-0.15827 -0.22384,-1.10119 -0.75273,-2.12751 -0.95655,-3.23259 -0.20823,-1.12894 -0.68761,-2.36267 -0.27288,-3.43313 0.50935,-1.3147 1.88217,-2.09975 2.82325,-3.14963 -0.71464,0.43706 -2.22711,0.47762 -2.14392,1.31117 0.1846,1.84974 1.75916,3.27931 2.75848,4.84677 0.0833,0.13073 0.5478,0.27009 0.43555,0.16315 -1.02408,-0.97557 -2.63361,-1.49389 -3.19513,-2.79203 -0.94213,-2.17802 1.17947,-4.88247 0.36449,-7.10983 3.72712,-2.35415 18.38068,-12.69382 15.22426,7.43856 -0.72097,4.59851 -9.57498,0.13225 -13.86271,-1.67922 -1.32547,-0.55999 0.14401,-2.93868 -0.3042,-4.306 -1.29787,-3.95935 -3.21508,-0.6616 -0.44336,-3.87157 5.52481,1.66281 11.63274,2.01047 16.57442,4.98844 1.33094,0.80206 -2.23463,2.74093 -3.78838,2.71672 -3.81076,-0.0594 -7.70056,-1.12415 -11.04711,-2.94789 -0.88882,-0.48438 -3.01029,-6.01666 -2.70726,-7.48893 0.24028,-1.16737 1.27257,-2.01558 1.90885,-3.02336 5.33197,1.10727 10.68777,2.10548 15.99593,3.32182 0.10881,0.0249 0.0344,0.31882 -0.077,0.32593 -4.8492,0.30951 -9.70707,0.48188 -14.56447,0.6086 -0.59881,0.0156 -1.29216,0.15438 -1.78779,-0.18202 -1.04777,-0.71116 -0.32643,-2.58129 -0.18281,-3.31558 5.28495,-0.35818 10.56181,-0.86777 15.85485,-1.07454 0.16712,-0.007 0.2126,0.27982 0.22941,0.44621 0.0414,0.40938 0.3495,1.19053 -0.0598,1.23294 -5.18702,0.53756 -10.43644,0.74459 -15.63945,0.39404 -1.37363,-0.0926 1.5937,-4.97635 -0.55951,-4.09217 5.2851,-0.61198 10.55457,-1.37885 15.85532,-1.83596 0.90351,-0.0779 2.06714,2.26361 1.17994,2.4514 -5.43321,1.15003 -11.04994,1.34744 -16.60343,1.38107 -0.69213,0.004 -1.5444,-0.5854 -1.6423,-1.27059 -0.17268,-1.20852 0.63707,-2.35702 0.9556,-3.53553 0,-1.2089 17.09644,-1.2089 17.09644,0 z"
         id="path3821"
         style="color:#000000;fill:#b90b34;fill-opacity:1;fill-rule:nonzero;stroke:none;stroke-width:4;marker:none;visibility:visible;display:inline;overflow:visible;enable-background:accumulate" />
      <path
         d="m 296.02232,583.51665 c 1.05839,0.74853 2.51944,1.12732 3.17518,2.24557 0.27038,0.46108 -0.9112,0.5591 -1.36337,0.84414 -4.28061,2.69846 -8.49581,5.503 -12.83492,8.10634 -0.27991,0.16794 -0.78972,0.4486 -0.96395,0.17256 -0.3277,-0.51916 -0.60143,-1.50255 -0.0883,-1.83969 4.80358,-3.15636 10.14706,-5.40232 15.2206,-8.10349 1.6804,-1.51943 4.07531,2.69878 2.83539,3.58349 -4.453,3.1773 -9.3241,5.89311 -14.47752,7.728 -0.92202,0.32829 -0.0745,-2.30818 0.74753,-2.83941 4.04315,-2.61298 8.39745,-5.02483 13.08921,-6.10287 1.41828,-0.32588 2.50079,1.48892 3.75119,2.23338 0.50376,0.56729 1.08479,1.07441 1.51126,1.70187 0.14969,0.22023 0.42204,0.6795 0.17521,0.7794 -4.90818,1.98629 -9.95123,3.63206 -15.00208,5.22091 -0.68584,0.21574 1.23031,-0.74539 1.8626,-1.08763 13.52668,-7.32162 8.67725,-9.44181 15.65503,-4.14809 0.41024,0.51629 1.49319,2.15384 1.23073,1.54889 -0.38312,-0.88305 -0.64654,-2.52528 -1.60133,-2.40307 -3.64773,0.4669 -6.84059,2.70718 -10.30966,3.92764 -0.29009,0.10206 0.4267,-0.56886 0.73405,-0.55882 4.62889,0.15129 9.22883,0.82589 13.85543,1.03567 0.53366,0.0242 1.04461,-0.22427 1.56692,-0.33641 -0.6293,0.0228 -1.25859,0.0455 -1.88789,0.0683 -0.0655,-0.91346 0.70665,-2.58876 -0.19652,-2.74039 -1.82029,-0.3056 -6.91644,1.08851 -5.22616,1.83 2.73548,1.2 6.05502,-0.89102 8.95928,-0.19236 3.6026,0.86666 -0.72585,3.65729 1.48514,2.06878 0.44347,0.24503 1.34005,1.24167 1.33042,0.7351 -0.0157,-0.82467 -0.87522,-1.39962 -1.35579,-2.06997 -0.12575,-0.17542 -0.65493,-0.54481 -0.45699,-0.45873 1.13679,0.49438 2.29845,0.97974 3.30829,1.69873 0.37392,0.26622 0.44924,0.80355 0.72335,1.17173 0.17684,0.23753 0.41438,0.42317 0.62157,0.63475 -0.28705,-0.1899 -1.16945,-0.41666 -0.86116,-0.56971 1.04145,-0.51702 4.02212,1.65865 4.15284,1.78242 0.54225,0.51339 0.69013,2.56739 1.10676,1.94769 0.47549,-0.70724 -0.5974,-1.60245 -0.77908,-2.43508 -0.0633,-0.2901 0.0358,-0.59277 0.0537,-0.88916 5.80714,-2.76205 1.23442,2.12799 2.27831,2.63834 0.5468,0.26732 1.21587,0.40471 1.80723,0.2607 0.2273,-0.0554 -0.12763,-0.89518 0.004,-0.7018 0.91825,1.34879 0.27243,2.84157 0.93226,-0.18114 0.79078,0.33863 1.60053,0.63597 2.37232,1.01588 8.45668,4.16275 2.63017,1.36954 1.82695,1.25008 -2.51562,-0.37415 -5.14063,-0.0988 -7.58925,-0.78626 -0.64235,-0.18033 1.15258,-0.8353 1.81976,-0.83344 2.10815,0.006 4.17751,0.57066 6.26627,0.85599 1.40252,0.57947 2.80504,1.15893 4.20757,1.7384 -0.002,-0.19164 -0.19808,-0.55575 -0.007,-0.57491 0.44082,-0.0443 1.69361,0.45305 1.25059,0.45004 -2.32131,-0.0158 -4.68249,-0.99963 -6.94693,-0.48871 -1.29336,0.29181 -4.21966,2.51087 -2.90922,2.71251 2.84621,0.43795 5.62403,-1.24139 8.43605,-1.86209 0.88515,0.64176 1.58573,1.69929 2.65544,1.92526 0.7103,0.15005 1.24619,-0.8161 1.95964,-0.95035 0.18932,-0.0356 0.3717,0.48267 0.18973,0.54591 -0.44844,0.15585 -1.01688,-0.37047 -1.4193,-0.11859 -0.31689,0.19834 0.75519,0.53986 1.06953,0.33751 0.43314,-0.27882 0.40742,-0.94626 0.61112,-1.41939 -1.96651,0.48411 -7.48261,0.18926 -5.89952,1.45233 3.11895,2.48849 7.67363,2.20898 11.56935,3.0714 0.34305,0.0759 -0.58234,-0.41077 -0.79926,-0.68716 -0.92526,-1.17888 -1.27918,-2.97418 -2.61206,-3.65923 -0.77307,-0.39733 0.15797,1.75558 0.47945,2.56314 0.0756,0.18996 0.22458,-0.34172 0.33687,-0.51258 -1.84838,-0.17459 -7.27688,-1.19311 -5.54513,-0.52377 3.04066,1.17525 6.37938,1.3471 9.55708,2.07444 0.22385,0.0512 0.84322,0.36282 0.63832,0.25915 -1.02002,-0.51608 -1.94743,-1.38787 -3.08532,-1.49722 -1.82476,-0.17534 -7.24753,1.07271 -5.45774,0.6763 2.54282,-0.56319 5.14933,-0.78549 7.72399,-1.17823 1.41849,1.3563 3.55602,3.04715 3.96564,5.13426 0.10503,0.53518 -0.90726,-0.62917 -1.42212,-0.80911 -3.24288,-1.13334 -6.42563,-2.60444 -9.82187,-3.12052 -0.53081,-0.0807 -0.71507,1.53461 -0.18222,1.60035 3.87042,0.47749 7.79861,-0.11978 11.69791,-0.17967 4.40276,-10.28439 3.42439,10.15547 2.54462,7.62466 -1.53417,-4.41333 2.78158,-6.17164 -4.51474,-7.45839 -2.51788,-0.44404 -9.21579,-1.43822 -7.64813,0.58151 1.87524,2.416 6.05768,0.84778 9.08652,1.27167 3.25641,0.10507 3.17822,6.17597 6.12825,6.43054 1.36503,0.11779 -1.45364,-2.32609 -2.08776,-3.54063 -0.27819,-0.53281 -0.90034,-2.22764 -0.64085,-1.68547 3.00875,6.28619 2.95155,3.66702 1.22339,9.02983 -0.34125,0.0832 -1.27404,0.49603 -1.02375,0.24959 0.35253,-0.34712 1.16591,-0.1315 1.36416,-0.58478 0.28453,-0.65053 0.0333,-1.44524 -0.18007,-2.12247 -0.13053,-0.4144 -0.4728,-1.29496 -0.81009,-1.0211 -3.94536,3.20345 -8.64804,6.06693 -10.97119,10.58698 -0.8503,1.65439 3.71968,-0.0644 5.57952,-0.0967 1.68437,-1.37382 3.41507,-2.69271 5.05311,-4.12146 0.15389,-0.13422 -0.4378,0.0622 -0.57382,0.2145 -0.73429,0.82212 -1.69321,1.58329 -1.98203,2.64706 -0.11307,0.41648 1.62507,-0.37366 1.29072,-0.1008 -1.61843,1.32077 -3.38452,2.50268 -5.2881,3.363 -1.17848,0.53261 2.05112,-1.5757 3.07668,-2.36355 -0.005,2.35769 1.75146,-2.94132 1.91211,-2.02657 0.36751,2.09258 -1.23319,5.01603 -2.63233,6.20271 -4.40394,3.7352 -2.90167,-0.4167 -3.65685,2.03174 0.17718,-0.12696 4.33342,-2.15315 3.27435,-3.9096 -0.26308,-0.43632 -0.34593,1.02294 -0.75192,1.33077 -1.62468,1.23184 -3.29802,2.50341 -5.21625,3.19436 -2.02862,0.73071 -7.95229,2.47631 -6.39284,0.98723 1.96181,-1.87327 5.19826,-1.55226 7.79739,-2.32839 0.64685,0.21239 2.57513,0.39051 1.94055,0.63718 -0.73039,0.2839 -1.57109,-0.79259 -2.29742,-0.49846 -0.64104,0.25958 -0.555,1.28398 -0.98333,1.82697 -0.0798,0.10121 -0.1009,-0.42396 -0.19387,-0.33465 -1.12425,1.0799 -2.05211,2.34739 -3.09755,3.50375 -0.42869,0.0741 -1.43982,0.62933 -1.28607,0.22236 0.42808,-1.13307 1.09731,-3.12581 2.2731,-2.83493 1.10482,0.27333 -0.99001,2.06211 -1.65056,2.98894 -0.19009,0.26673 -0.6155,0.27037 -0.84138,0.50755 -0.16694,0.17529 -0.21253,0.43757 -0.28008,0.67002 -0.25459,0.87603 -0.45647,1.76652 -0.68471,2.64978 -0.87409,-0.4542 -2.18879,-0.47806 -2.62228,-1.36261 -0.63371,-1.29313 5.92364,-0.52499 0.70344,1.54246 -1.31294,0.51999 -2.91108,-0.55612 -4.23595,-0.0673 -0.49456,0.18247 0.48929,0.97387 0.90691,1.29555 0.14116,0.10872 0.0609,-0.35112 0.0913,-0.52668 1.23409,0.75742 0.77245,-2.30737 0.49049,-1.76554 -0.58492,1.12401 0.26441,3.18667 -0.89668,3.69402 -3.34343,1.46094 -7.26399,0.77128 -10.851,1.43924 -0.30602,0.057 -0.92741,0.75395 -0.62137,0.69709 2.31152,-0.42948 4.53819,-1.23095 6.80728,-1.84643 0.22521,0.29561 0.3279,1.01797 0.67562,0.88684 0.78654,-0.29663 0.87774,-4.30403 -0.005,-3.29122 -1.03739,1.19086 -0.73494,3.14478 -1.62113,4.45207 -0.44609,0.65805 -1.39985,0.75773 -2.12755,1.07787 -1.06934,0.47043 -2.17207,0.86095 -3.25811,1.29143 -1.18482,-1.38671 0.2606,0.54988 2.88996,-1.53757 0.7668,-0.60876 2.40612,-2.74883 1.44612,-2.55654 -1.04494,0.2093 -5.68659,4.56269 -7.13012,5.2745 -0.19566,0.0965 -0.19102,-0.39227 -0.28653,-0.58841 -0.10997,0.29881 -0.60301,1.06012 -0.32991,0.89642 1.36516,-0.81829 2.30634,-2.29016 3.75499,-2.94945 0.57519,-0.26178 -0.49832,1.18648 -0.91849,1.65852 -0.79407,0.8921 -1.57901,1.91183 -2.67725,2.38115 -0.99511,0.42524 -2.21143,-0.178 -3.24306,0.14881 -0.30787,0.0975 0.47813,0.43423 0.7172,0.65135 -0.57847,0.0249 -1.80527,0.64947 -1.73541,0.0747 0.12026,-0.98947 1.33984,-1.47621 1.99685,-2.22577 0.10746,-0.1226 -0.23711,0.22418 -0.34754,0.34411 -0.0266,0.0289 0.12433,-0.0956 0.0949,-0.0697 -1.22307,1.07724 -2.33135,2.303 -3.67608,3.22388 -0.22552,0.15444 -0.53678,-0.10341 -0.80517,-0.15511 -3.72022,0.38188 1.28391,0.097 3.41371,-3.92595 0.4086,-0.77179 -0.41905,-2.69879 -1.20812,-2.32464 -2.15473,1.0217 -19.64808,11.5719 -3.35111,8.47431 0.81319,-0.15456 -1.19819,-1.14236 -1.79729,-1.71355 0.59517,-0.11984 1.20242,-0.19044 1.78552,-0.35953 0.0853,-0.0247 0.16694,-0.1181 0.16776,-0.20688 0.0284,-3.08541 0.62427,-6.25237 -0.0808,-9.25628 -0.26588,-1.13277 -1.80971,-3.11955 -2.63041,-2.29473 -14.68015,14.7538 -10.86403,12.84562 -0.25443,14.612 0.93161,-1.77936 1.12322,-1.70383 -0.3362,-0.51838 -1.006,0.71917 -11.17669,-13.50781 -10.17069,-14.22698 l 0,0 c 1.424,2.56382 0.66658,2.19241 2.12309,-1.3774 11.04624,0.99454 16.1155,-1.48873 2.60525,13.91122 -0.78249,0.89193 -2.80803,-0.47602 -3.17799,-1.60339 -4.65444,-14.18348 -2.68258,-7.34446 0.48296,-10.23603 0.85585,-0.78177 1.62295,-1.65547 2.43443,-2.48321 2.27054,-0.2886 8.72071,-1.15801 8.2895,-0.0376 -10.27669,26.70265 -10.69089,6.63012 -9.40037,4.32029 3.20376,-5.73422 1.89324,-6.24387 4.08642,-5.24965 0.55727,-0.002 1.71692,-0.56044 1.6718,-0.005 -0.0813,1.00035 -0.91961,2.02377 -1.86348,2.36498 -0.53276,0.19261 -0.31787,-1.24638 0.0223,-1.69938 0.20578,-0.27404 0.67228,0.63627 0.93829,0.42021 3.16887,-2.57387 2.56236,-5.2409 2.90612,-2.11748 0.46208,-0.51756 0.94279,-1.01908 1.38625,-1.55268 0.21242,-0.25559 -0.53827,0.42303 -0.69221,0.71756 -0.28203,0.53961 -0.64177,1.12335 -0.58689,1.72973 0.0567,0.62624 0.39426,2.04314 0.8938,1.66123 4.26628,-3.26167 1.77507,-6.5148 3.59181,-3.68255 0.37573,-0.30148 1.40778,-1.29598 1.12718,-0.90442 -0.44854,0.62591 -1.20302,0.99201 -1.64289,1.62405 -0.63949,0.91889 -1.20205,4.0367 -1.55801,2.97529 -1.2645,-3.77047 2.4508,-6.6025 5.28114,-7.53252 0.63949,-0.21013 1.22811,0.55152 1.84217,0.82728 -0.5235,0.33678 -0.99616,0.77032 -1.57051,1.01033 -1.29503,0.54116 -2.86114,-5.97414 -1.40816,3.23801 0.14014,0.88852 0.53068,-1.73755 0.99295,-2.50917 2.57708,-4.30168 1.39448,0.30341 2.17466,-4.75019 3.1621,-0.231 6.36278,-1.237 9.48628,-0.69301 0.85115,0.14824 1.56899,2.17197 0.76092,2.47767 -2.46317,0.93185 -5.39332,-0.59307 -7.89749,0.2222 -0.74527,0.24263 -0.7809,2.47638 -0.007,2.35128 1.77874,-0.2876 -0.18278,-5.07403 2.72325,-4.66943 0.9325,-0.0598 2.03072,0.35457 2.79749,-0.17946 0.6707,-0.46711 1.44585,-1.82997 0.79211,-2.32054 -0.62218,-0.46689 -0.92577,1.25393 -1.31935,1.9249 -0.14777,0.25191 -0.53427,0.99133 -0.29394,0.82537 0.61807,-0.4268 1.18559,-0.99315 1.51467,-1.66834 0.15075,-0.3093 -0.13921,-0.67393 -0.20882,-1.0109 0.6851,0.50356 0.37085,0.35968 2.0093,-0.45955 0.35395,-0.17698 1.08975,-1.10746 0.92048,-0.74976 -0.33738,0.7129 -1.79482,2.57898 -1.45038,1.86946 2.19479,-4.52105 3.43821,-2.55524 1.71432,-4.57859 4.54238,-1.42271 1.67134,-1.39653 2.20485,2.69831 0.0926,0.71077 0.0999,-1.54754 0.59421,-2.06661 0.30323,-0.31842 -0.16229,0.97887 0.1231,1.31338 0.65825,0.77156 0.89931,-6.49184 0.6761,-2.96653 3.27703,-1.22257 6.98736,-1.63136 9.83111,-3.66772 1.53549,-1.09955 -3.89198,-0.0873 -5.62745,0.65754 -1.68851,0.72471 -3.10162,2.09456 -4.20605,3.56307 -0.27063,0.35984 1.0384,0.618 1.3236,0.26959 5.63197,-6.88021 -5.63712,0.82327 4.5615,-5.15758 0.0325,-0.44156 0.51073,-1.48384 0.0976,-1.32468 -1.5735,0.60616 -0.96486,3.2088 -1.4848,4.1411 -0.20346,0.36483 -1.07534,0.79233 -1.19066,0.39084 -0.26524,-0.92335 -0.0299,-2.03081 0.48695,-2.84064 0.59202,-0.92764 1.74223,-1.34485 2.61334,-2.01728 1.20281,-0.68571 4.13329,-3.33833 3.60842,-2.05713 -0.66638,1.62662 -2.51794,2.56459 -4.11616,3.29649 -0.55464,0.254 1.06162,-2.16205 0.65194,-1.71005 -0.50123,0.553 -0.49524,1.4336 -0.94275,2.03091 -0.15792,0.21078 0.009,-0.52669 0.0131,-0.79004 1.71336,-2.24345 3.42672,-4.4869 5.14008,-6.73036 2.43378,0.36434 7.97136,-1.27492 7.30134,1.09302 -7.89019,27.88495 -9.8319,14.06221 -11.3183,9.23383 -0.31605,-1.02663 -0.96538,-1.98898 -1.00286,-3.06249 -0.0391,-1.12093 1.26016,-2.05141 0.83683,-3.25911 0.23014,0.85487 0.30198,1.76907 0.69044,2.5646 0.65727,1.34601 2.05701,2.33594 2.41302,3.79094 0.1791,0.73197 -1.4136,-0.70993 -1.81518,-1.34758 -0.77606,-1.23228 -1.30026,-2.64117 -1.59501,-4.06732 -0.42614,-2.06189 3.76232,9.26677 3.58016,5.20377 2.85035,-0.24039 7.28385,-3.28563 8.55107,-0.72116 1.20906,2.44677 -5.24949,2.23737 -7.95988,1.91754 -6.09852,-0.71962 -3.26917,-4.89831 -4.433,-8.14292 -0.52439,-1.46191 -8.68155,9.47934 1.13106,4.51999 4.35534,0.42587 8.72803,0.70131 13.06603,1.27763 1.28868,0.17121 -2.60451,0.0537 -3.89954,-0.0598 -3.54457,-0.31077 -7.14089,-0.40127 -10.60548,-1.21191 -0.86184,-0.20165 -2.18622,-0.87233 -2.00665,-1.73903 0.0329,-0.1588 2.83788,1.352 3.30981,1.60162 2.02534,0.23881 7.71722,-0.49412 6.07601,0.71644 -1.92064,1.41668 -4.81044,0.50529 -7.15931,0.0826 -9.12628,-1.64226 1.21515,-6.66231 4.38649,-1.17764 1.08454,1.87564 -4.26172,0.78405 -6.39258,1.17607 -0.42407,-0.15989 -0.82014,-0.4474 -1.2722,-0.47969 -0.14607,-0.0104 -0.15567,0.24811 -0.23351,0.37216 -1.41873,-1.04099 -2.83745,-2.08197 -4.25618,-3.12296 -0.46965,-0.43184 -1.57604,-1.77673 -0.94832,-1.66259 21.77283,3.95909 10.53718,3.57696 4.51238,3.77499 -0.47233,-0.0105 -0.94665,0.0133 -1.41698,-0.0314 -0.23977,-0.0228 -0.46555,-0.12553 -0.70229,-0.16983 -1.04643,-0.19577 -2.11031,-0.30385 -3.14601,-0.55014 -0.47528,-0.11302 -1.1007,-0.11516 -1.36893,-0.52347 -0.20021,-0.30477 -0.02,-1.07784 0.34257,-1.03893 0.70347,0.0755 1.13917,0.83939 1.70876,1.25909 2.76471,-0.86023 5.46504,-1.96437 8.29414,-2.58067 1.68615,-0.36732 -3.12519,1.667 -4.84328,1.82892 -2.4284,0.22885 -4.94155,-0.0102 -7.28525,-0.68593 -1.28571,-0.37068 4.37334,-6.72683 -3.29175,-1.14655 -0.6615,0.48157 1.60014,0.3428 2.40021,0.51421 1.53342,0.13142 3.09539,0.0718 4.60027,0.39426 0.35267,0.0756 1.12819,0.81941 0.77291,0.75723 -2.96791,-0.51943 -5.87407,-1.35349 -8.77766,-2.15817 -1.05301,-0.29183 -1.99672,-0.97064 -3.07811,-1.12747 -1.18317,-0.17158 6.2407,2.54473 1.34195,3.32615 -0.68589,-0.76564 -1.62634,-1.36385 -2.05767,-2.29691 -0.23378,-0.50571 0.71248,-1.37579 0.2306,-1.6554 -0.68322,-0.39645 -1.54121,0.37918 -2.32895,0.43781 -0.0887,0.007 0.0753,-0.19534 0.0213,-0.26607 -0.17664,-0.23141 -0.58851,-0.85344 -0.66052,-0.57137 -0.21352,0.83637 0.0976,1.72362 0.14634,2.58543 -4.23165,-1.54764 -1.44835,-0.19443 -6.02499,-3.88607 -0.0755,-0.0609 0.037,0.28054 0.13173,0.25963 0.69174,-0.15264 1.82063,-1.41547 1.99612,-0.72917 0.33387,1.30566 -5.20883,6.13089 -3.85256,-1.22629 -0.44532,0.0365 -1.13423,0.50825 -1.33595,0.10956 -0.42443,-0.83882 3.19679,-2.11165 2.26429,0.41459 -0.26284,0.71206 -1.41886,0.9933 -2.14366,0.76795 -9.84956,-3.06236 -0.29748,-2.33973 -4.65333,-2.56879 -0.4361,-0.53316 -1.08004,-0.94961 -1.30831,-1.59948 -0.1462,-0.41623 0.59906,0.76183 1.03584,0.82377 2.67896,0.37989 5.98802,-1.21468 8.10353,0.47226 2.1489,1.71357 -10.46018,0.44765 -10.56511,0.3847 -1.40724,-0.84418 -2.03461,-2.5753 -3.05191,-3.86295 -0.17445,-0.9288 -1.45318,-2.61755 -0.52335,-2.78639 4.19516,-0.76173 8.51836,0.39702 12.77897,0.56107 0.14668,0.006 0.57215,-0.11009 0.43726,-0.0522 -3.87354,1.66305 -7.47279,4.47422 -11.6692,4.87447 -2.32307,0.22157 -2.6763,-5.0177 -5.68042,-4.09202 5.23424,-1.25532 3.12462,-0.67175 12.93163,-7.75417 0.52172,-0.37677 -1.33333,-0.10894 -1.92529,0.1435 -4.41905,1.8845 -8.60787,4.27568 -13.00027,6.2215 -1.15405,0.51124 -2.86659,-2.69778 -3.72844,-0.6615 2.78091,-5.8832 -0.46652,0.46963 12.36684,-10.19858 0.29132,-0.24217 0.58862,-1.32131 0.28014,-1.10143 -4.56322,3.25263 -8.38045,7.57407 -13.25036,10.34652 -1.74192,0.99167 0.30365,-9.30461 -4.63109,-3.83568 3.93567,-3.42197 7.98447,-6.71801 11.80701,-10.2659 0.31631,-0.29358 0.11894,-1.32149 0.52745,-1.18235 1.09242,0.37209 3.3037,1.32235 2.62589,2.25639 -3.25088,4.47977 -7.67496,8.12861 -12.33242,11.11939 -2.04743,1.31475 -4.5567,-5.27058 -6.56268,-3.19626 -0.82034,-1.05758 14.13612,-12.659 14.95646,-11.60142 z"
         id="path3823"
         style="color:#000000;fill:#b90b34;fill-opacity:1;fill-rule:nonzero;stroke:none;stroke-width:4;marker:none;visibility:visible;display:inline;overflow:visible;enable-background:accumulate" />
    </g>
  </g>
</svg>
