<?xml version="1.0" encoding="UTF-8" standalone="no"?>
<!-- Created with Inkscape (http://www.inkscape.org/) -->

<svg
   xmlns:dc="http://purl.org/dc/elements/1.1/"
   xmlns:cc="http://creativecommons.org/ns#"
   xmlns:rdf="http://www.w3.org/1999/02/22-rdf-syntax-ns#"
   xmlns:svg="http://www.w3.org/2000/svg"
   xmlns="http://www.w3.org/2000/svg"
   version="1.2"
   width="2000"
   height="1000"
   viewBox="0 0 2000 1000"
   id="svg2">
  <metadata
     id="metadata184">
    <rdf:RDF>
      <cc:Work
         rdf:about="">
        <dc:format>image/svg+xml</dc:format>
        <dc:type
           rdf:resource="http://purl.org/dc/dcmitype/StillImage" />
        <dc:title></dc:title>
      </cc:Work>
    </rdf:RDF>
  </metadata>
  <path
     d="M 627.60934,864.03303 C 571.06995,848.61677 492.92218,846.35319 427.03249,796.98981 l 0,-86.72983 c 64.86453,31.34402 143.69576,29.50703 170.81082,-51.88381 -42.7011,0 -85.40432,-42.70323 -85.40432,-170.81298 0,-85.4065 -128.10976,-154.0734 -170.81301,-111.37014 C 298.92272,333.53333 170.813,402.15669 170.813,487.56319 c 0,128.10975 -42.70325,170.81298 -85.4065,170.81298 27.11721,81.39084 105.98979,83.22783 170.81299,51.88381 l 0,86.72983 C 190.37117,846.35319 112.22552,848.61677 55.642637,864.03303 22.803362,872.95894 0,924.1593 0,958.10859 L 0,1000 l 683.24981,0 0,-41.89141 c 0,-33.94929 -22.7185,-85.14965 -55.64047,-94.07556"
     id="path9"
     style="fill:#009f95;fill-opacity:1" />
  <rect
     width="947.00281"
     height="292.00284"
     rx="9.9815712"
     x="16.498577"
     y="666.4986"
     id="rect4058"
     style="fill:#e3e0cf;fill-opacity:1;stroke:#000000;stroke-width:2.9971571;stroke-linecap:square;stroke-linejoin:round;stroke-miterlimit:4;stroke-opacity:1;stroke-dasharray:none;stroke-dashoffset:0" />
  <g
     transform="matrix(1.0888889,0,0,1,988.42985,-24.914)"
     id="g3916"
     style="fill:#e3e0cf;fill-opacity:1;stroke:none">
    <path
       d="m 28.993,54.914 900,0 0,300 -900,0 z"
       id="path3918"
       style="fill:#e3e0cf;fill-opacity:1;stroke:none" />
  </g>
  <path
     d="m 1692.1309,873.60209 1.3594,-1.32633 1.3901,1.32633 -2.7495,0 z m 251.594,36.94018 c -15.1681,-23.06733 -66.2642,-37.38229 -116.8219,-57.79523 -50.528,-20.44403 -62.5046,-27.55403 -62.5046,-27.55403 l -0.4732,-47.05165 c 0,0 18.9277,-14.15609 24.7425,-58.48947 11.8488,3.31753 24.3626,-17.15931 24.9945,-27.96677 0.6633,-10.39473 -1.7061,-39.2457 -16.1472,-36.33917 0.2211,-1.0103 0.316,-1.92732 0.4421,-2.93762 l 44.7444,0 c 8.754,0 15.8001,-7.07891 15.8001,-15.80017 0,-8.72125 -7.0461,-15.80016 -15.8001,-15.80016 l -41.299,0 0,-0.18825 9.7005,0 c -7.8993,-7.90096 -15.8003,-31.60034 -15.8003,-94.7993 0,-70.65607 -63.1988,0 -94.7663,0 -31.5988,0 -94.7977,-70.65607 -94.7977,0 0,63.19896 -7.8993,86.89834 -15.7985,94.7993 l 9.7316,0 0,0.18825 -10.1115,0 c 0.1271,-0.0951 0.2521,-0.0621 0.3799,-0.18825 l -15.8003,0 c 0,0 0.1901,0.15711 0.2212,0.18825 l -16.0213,0 c -8.7522,0 -15.8,7.07891 -15.8,15.80016 0,8.72126 7.0478,15.80017 15.8,15.80017 l 44.7775,0 c 0.1271,1.0103 0.221,1.92732 0.3469,2.93762 -14.4721,-2.90653 -16.7482,25.94444 -16.0849,36.33917 0.6648,10.80746 13.1145,31.2843 24.9634,27.96677 5.8458,44.26949 24.8374,58.48947 24.8374,58.48947 l -0.5058,47.05165 c 0,0 -12.0079,7.11 -62.5344,27.55403 -50.5591,20.41294 -101.6553,34.7918 -116.8545,57.79523 -6.0046,9.1012 -8.5641,33.49482 -9.5432,57.85913 l 0,31.5986 505.5571,0 0,-31.5986 c -0.9792,-24.36431 -3.5075,-48.75793 -9.5744,-57.85913"
     id="path7"
     style="fill:#5fa027;fill-opacity:1" />
  <g
     transform="matrix(1.0888889,0,0,1,-31.570155,-24.914)"
     id="g11"
     style="fill:#e3e0cf;fill-opacity:1;stroke:none">
    <path
       d="m 28.993,54.914 900,0 0,300 -900,0 z"
       id="path13"
       style="fill:#e3e0cf;fill-opacity:1;stroke:none" />
  </g>
  <path
     d="M 0,0 980,0 980,90 0,90 z"
     id="path29"
     style="fill:#009f95;fill-opacity:1" />
  <g
     transform="matrix(0.85714286,0,0,0.85714286,-227.14057,153.32313)"
     id="g6710"
     style="fill:#1a171b;fill-opacity:1">
    <path
       d="m 800.516,844.873 -43.75,43.75 26.25,26.25 43.75,-43.75 -26.25,-26.25"
       id="path51"
       style="fill:#1a171b;fill-opacity:1" />
    <path
       d="m 748.016,923.623 26.25,0 -26.25,-26.25 0,26.25"
       id="path53"
       style="fill:#1a171b;fill-opacity:1" />
    <path
       d="m 844.283,783.623 -78.767,0 0,61.644 8.75,0 0,-52.894 61.25,0 0,43.75 43.75,0 0,78.75 -70,0 0,8.75 78.75,0 0,-96.285 -43.733,-43.715 z m -0.017,43.75 0,-31.413 31.395,31.413 -31.395,0"
       id="path55"
       style="fill:#1a171b;fill-opacity:1" />
  </g>
  <path
     d="M 720,300 315,705"
     id="path63"
     style="fill-opacity:0;stroke:#000000;stroke-width:4;stroke-miterlimit:4;stroke-dasharray:16, 8;stroke-dashoffset:0;marker-start:none;marker-mid:none;marker-end:url(#TriangleOutM)" />
  <path
     d="m 1020,0 980,0 0,90 -980,0 z"
     id="path87"
     style="fill:#5fa027;fill-opacity:1" />
  <path
     d="M 1180,300 650,830"
     id="path109"
     style="fill-opacity:0;stroke:#000000;stroke-width:4;stroke-miterlimit:4;stroke-dasharray:16, 8;stroke-dashoffset:0;marker-end:url(#TriangleOutM)" />
  <path
     d="M 920,830 1450,300"
     id="path119"
     style="fill-opacity:0;stroke:#000000;stroke-width:4;stroke-dasharray:12, 8;marker-end:url(#TriangleOutM)" />
  <text
     x="1314.3494"
     y="531.73816"
     id="text127">
    <tspan
       x="1270.9694"
       y="544.73816"
       id="tspan129"
       style="font-size:30px;fill:#000000;font-family:Ubuntu">HTTPs</tspan>
  </text>
  <g
     transform="matrix(0.85662888,0,0,0.85662888,-159.48129,153.7259)"
     id="g6715"
     style="fill:#1a171b;fill-opacity:1">
    <path
       d="m 1158.153,871.207 0,-4.375 c 0,-7.14 -3.465,-13.414 -8.75,-17.404 -3.675,-2.773 -8.181,-4.471 -13.125,-4.471 -4.953,0 -9.468,1.698 -13.125,4.471 -5.285,3.99 -8.75,10.264 -8.75,17.404 l 0,4.375 -8.75,0 0,52.5 61.25,0 0,-52.5 -8.75,0 z m -26.25,17.5 8.75,0 0,17.5 -8.75,0 z m 17.5,-17.5 -26.25,0 0,-4.375 c 0,-7.245 5.88,-13.125 13.125,-13.125 7.227,0 13.125,5.88 13.125,13.125 l 0,4.375"
       id="path57"
       style="fill:#1a171b;fill-opacity:1" />
    <path
       d="m 1258.13,818.588 -26.233,-26.215 -8.75,-8.75 -78.767,0 0,52.5 8.75,0 0,-43.75 61.25,0 0,43.75 43.75,0 0,78.75 -16.303,-0.084 -0.2,8.834 25.253,0 0,-96.285 -8.75,-8.75 z m -35,8.785 0,-31.413 31.395,31.413 -31.395,0"
       id="path59"
       style="fill:#1a171b;fill-opacity:1" />
    <path
       d="m 1228.594,844.873 -43.75,43.75 26.25,26.25 43.75,-43.75 -26.25,-26.25"
       id="path131"
       style="fill:#1a171b;fill-opacity:1" />
    <path
       d="m 1176.59,923.623 26.25,0 -26.25,-26.25 0,26.25"
       id="path133"
       style="fill:#1a171b;fill-opacity:1" />
  </g>
  <g
     transform="matrix(0.85714286,0,0,0.85714286,236.276,1.21657)"
     id="g73">
    <path
       d="m 1862.155,268.664 18.734,0 0,-8.75 -17.5,0 c 0,3.036 -0.516,5.932 -1.234,8.75"
       id="path75"
       style="fill:#1a1a1a" />
    <path
       d="m 1758.386,329.914 140,0 0,-140 -140,0 0,140 z m 8.75,-131.25 122.5,0 0,122.5 -122.5,0 0,-122.5 z"
       id="path77"
       style="fill:#1a1a1a" />
    <g
       id="g79">
      <path
         d="m 1828.394,268.664 c -4.83,0 -8.758,-3.921 -8.758,-8.75 0,-4.83 3.92,-8.75 8.75,-8.75 4.83,0 8.75,3.92 8.75,8.75 0,4.829 -3.912,8.75 -8.742,8.75 m 0,-35 c -14.472,0 -26.258,11.777 -26.258,26.25 0,14.472 11.777,26.25 26.25,26.25 14.455,0 26.25,-11.778 26.25,-26.25 0.01,-14.473 -11.778,-26.25 -26.242,-26.25"
         id="path81"
         style="fill:#1a1a1a" />
      <path
         d="m 1880.886,277.414 -22.357,0 c -6.055,10.403 -17.202,17.5 -30.143,17.5 -19.329,0 -35,-15.68 -35,-35 0,-19.329 15.671,-35 35,-35 16.301,0 29.863,11.182 33.766,26.25 l 18.734,0 0,-43.75 -105,0 0,17.5 8.75,0 0,8.75 -8.75,0 0,52.5 8.75,0 0,8.75 -8.75,0 0,17.5 105,0 0,-35 z"
         id="path83"
         style="fill:#1a1a1a" />
    </g>
  </g>
  <path
     d="m 1559.3711,246.49984 -97.5006,0 0,-44.99968 22.5003,0 0,22.50027 c 0,4.13973 3.3675,7.49952 7.5004,7.49952 4.1397,0 7.4995,-3.35979 7.4995,-7.49952 l 0,-22.50027 60.0004,0 0,44.99968 z m -45.0005,29.99979 -7.4995,0 0,-22.49942 7.4995,0 0,22.49942 z m 45.0005,-82.49984 -60.0004,0 0,-7.49952 11.2501,0 c 6.2173,0 11.2501,-5.03282 11.2501,-11.25014 0,-6.2096 -5.0328,-11.25013 -11.2501,-11.25013 l -18.7496,0 c -4.1329,0 -7.5004,3.35978 -7.5004,7.50037 l 0,22.49942 -22.5003,0 c -4.132,0 -7.4995,3.36064 -7.4995,7.50037 l 0,44.99968 c 0,4.13973 3.3675,7.50037 7.4995,7.50037 l 37.5002,0 0,29.99979 29.9998,0 0,-29.99979 30.0006,0 c 4.1475,0 7.4995,-3.36064 7.4995,-7.50037 l 0,-44.99968 c 0,-4.13973 -3.352,-7.50037 -7.4995,-7.50037"
     id="path85"
     style="fill:#1a1a1a" />
  <g
     transform="matrix(0.85714286,0,0,0.85714286,168.54502,1.216569)"
     id="g3247">
    <path
       d="m 1108.189,329.914 66.675,0 c 9.191,0 16.658,-7.84 16.658,-17.5 l 0,-26.25 c 0,-9.66 -7.467,-17.5 -16.658,-17.5 l -8.342,0 0,-59.439 c 0,-1.155 -0.433,-2.275 -1.217,-3.089 l -13,-13.659 c -1.566,-1.645 -3.691,-2.563 -5.9,-2.563 l -1.425,0 c -2.208,0 -4.333,0.918 -5.9,2.563 l -14.216,14.937 -4.175,0 c -2.3,0 -4.167,1.96 -4.167,4.375 l 0,8.75 c 0,2.415 1.867,4.375 4.167,4.375 l 4.175,0 0,8.75 -4.175,0 c -2.3,0 -4.167,1.96 -4.167,4.375 0,2.406 1.867,4.375 4.167,4.375 l 4.175,0 0,8.75 -4.175,0 c -2.3,0 -4.167,1.96 -4.167,4.375 0,2.415 1.867,4.375 4.167,4.375 l 4.175,0 0,8.75 -16.675,0 c -9.192,0 -16.667,7.84 -16.667,17.5 l 0,26.25 c 0,9.66 7.475,17.5 16.667,17.5 z m 16.675,-35 33.325,0 c 4.608,0 8.333,3.92 8.333,8.75 0,4.829 -3.725,8.75 -8.333,8.75 l -33.325,0 c -4.609,0 -8.342,-3.921 -8.342,-8.75 0,-4.83 3.733,-8.75 8.342,-8.75"
       id="path89"
       style="fill:#141413" />
    <path
       d="m 1184.844,219.914 118.381,0 0,10 -118.381,0 z"
       id="path91"
       style="fill:#141413" />
    <path
       d="m 1184.844,238.291 118.381,0 0,10 -118.381,0 z"
       id="path93"
       style="fill:#141413" />
    <path
       d="m 1195.777,257.581 107.448,0 0,10 -107.448,0 z"
       id="path95"
       style="fill:#141413" />
    <path
       d="m 1158.881,286.333 159.555,0.336 -0.758,-86.755 -160,0 z m 150.889,-6.33 -141.555,-0.336 -0.547,-69.753 140.01,0"
       id="path97"
       style="fill:#141413" />
  </g>
  <text
     x="1813.464"
     y="133.62074"
     id="text139"
     style="line-height:125%">
    <tspan
       x="1725.703"
       y="144.12074"
       id="tspan141"
       style="font-size:30px;font-style:normal;font-variant:normal;font-weight:normal;font-stretch:normal;text-align:start;line-height:125%;writing-mode:lr-tb;text-anchor:start;fill:#000000;font-family:Ubuntu;-inkscape-font-specification:Ubuntu">Key Storage</tspan>
  </text>
  <text
     x="1512"
     y="133.62074"
     id="text143"
     style="line-height:125%">
    <tspan
       x="1469.452"
       y="144.12074"
       id="tspan145"
       style="font-size:30px;font-style:normal;font-variant:normal;font-weight:normal;font-stretch:normal;text-align:start;line-height:125%;writing-mode:lr-tb;text-anchor:start;fill:#000000;font-family:Ubuntu;-inkscape-font-specification:Ubuntu">Inbox</tspan>
  </text>
  <text
     x="1223.135"
     y="133.62074"
     id="text155"
     style="line-height:125%">
    <tspan
       x="1145.47"
       y="143.99574"
       id="tspan157"
       style="font-size:30px;font-style:normal;font-variant:normal;font-weight:normal;font-stretch:normal;text-align:start;line-height:125%;writing-mode:lr-tb;text-anchor:start;fill:#000000;font-family:Ubuntu;-inkscape-font-specification:Ubuntu">Public Key</tspan>
  </text>
  <text
     x="1139.4124"
     y="988.04999"
     id="text159"
     style="font-size:30px;font-style:normal;font-variant:normal;font-weight:500;font-stretch:normal;text-align:end;line-height:125%;text-anchor:end;fill:#1a171b;fill-opacity:1;font-family:Ubuntu;-inkscape-font-specification:Ubuntu Medium">
    <tspan
       x="960"
       y="998.54999"
       id="tspan161"
       style="font-size:30px;font-style:normal;font-variant:normal;font-weight:normal;font-stretch:normal;text-align:end;line-height:125%;writing-mode:lr-tb;text-anchor:end;fill:#1a171b;fill-opacity:1;font-family:Ubuntu;-inkscape-font-specification:Ubuntu">Client Device</tspan>
  </text>
  <path
     d="m 355.03125,841.59374 0,17.96875 -145.03125,0 0,58.8125 145.03125,0 0,18.125 48.75,-47.4375 -48.75,-47.46875 z"
     id="path164"
     style="fill:none;stroke:#1a171b;stroke-width:3;stroke-miterlimit:4;stroke-opacity:1;stroke-dasharray:none" />
  <text
     x="285.116"
     y="888.90082"
     id="text168"
     style="line-height:125%">
    <tspan
       x="248.44901"
       y="901.90082"
       id="tspan170"
       style="font-size:36px;font-style:normal;font-variant:normal;font-weight:normal;font-stretch:normal;text-align:start;line-height:125%;writing-mode:lr-tb;text-anchor:start;fill:#000000;font-family:Ubuntu;-inkscape-font-specification:Ubuntu">sign</tspan>
  </text>
  <path
     d="m 718.875,841.59374 0,17.96875 -145.03125,0 0,58.8125 145.03125,0 0,18.125 48.78125,-47.4375 -48.78125,-47.46875 z"
     id="path172"
     style="fill:none;stroke:#1a171b;stroke-width:3;stroke-miterlimit:4;stroke-opacity:1;stroke-dasharray:none" />
  <text
     x="652"
     y="893.17889"
     id="text176"
     style="line-height:125%">
    <tspan
       x="580.99298"
       y="901.9809"
       id="tspan178"
       style="font-size:36px;font-style:normal;font-variant:normal;font-weight:normal;font-stretch:normal;text-align:start;line-height:125%;writing-mode:lr-tb;text-anchor:start;fill:#000000;font-family:Ubuntu;-inkscape-font-specification:Ubuntu">encrypt</tspan>
  </text>
  <defs
     id="defs180">
    <marker
       refX="0"
       refY="0"
       orient="auto"
       id="TriangleOutM"
       style="overflow:visible">
      <path
         d="m 5.77,0 -8.65,5 0,-10 8.65,5 z"
         transform="scale(0.4,0.4)"
         id="path4173"
         style="fill-rule:evenodd;stroke:#000000;stroke-width:1pt" />
    </marker>
    <marker
       refX="0"
       refY="0"
       orient="auto"
       id="TriangleOutL"
       style="overflow:visible">
      <path
         d="m 5.77,0 -8.65,5 0,-10 8.65,5 z"
         transform="scale(0.8,0.8)"
         id="path4170"
         style="fill-rule:evenodd;stroke:#000000;stroke-width:1pt" />
    </marker>
    <marker
       refX="0"
       refY="0"
       orient="auto"
       id="Arrow2Lend"
       style="overflow:visible">
      <path
         d="M 8.7185878,4.0337352 -2.2072895,0.01601326 8.7185884,-4.0017078 c -1.7454984,2.3720609 -1.7354408,5.6174519 -6e-7,8.035443 z"
         transform="matrix(-1.1,0,0,-1.1,-1.1,0)"
         id="path4049"
         style="fill-rule:evenodd;stroke-width:0.625;stroke-linejoin:round" />
    </marker>
    <marker
       refX="0"
       refY="0"
       orient="auto"
       id="Arrow1Lend"
       style="overflow:visible">
      <path
         d="M 0,0 5,-5 -12.5,0 5,5 0,0 z"
         transform="matrix(-0.8,0,0,-0.8,-10,0)"
         id="path4031"
         style="fill-rule:evenodd;stroke:#000000;stroke-width:1pt" />
    </marker>
    <marker
       refX="0"
       refY="0"
       orient="auto"
       id="Arrow1Lstart"
       style="overflow:visible">
      <path
         d="M 0,0 5,-5 -12.5,0 5,5 0,0 z"
         transform="matrix(0.8,0,0,0.8,10,0)"
         id="path4028"
         style="fill-rule:evenodd;stroke:#000000;stroke-width:1pt" />
    </marker>
    <marker
       refX="0"
       refY="0"
       orient="auto"
       id="TriangleOutM-9"
       style="overflow:visible">
      <path
         d="m 5.77,0 -8.65,5 0,-10 8.65,5 z"
         transform="scale(0.4,0.4)"
         id="path4173-9"
         style="fill-rule:evenodd;stroke:#000000;stroke-width:1pt" />
    </marker>
    <clipPath
       id="clipPath4129">
      <path
         d="M 0,0 16,0 16,16 0,16 0,0 z"
         id="path4131" />
    </clipPath>
    <clipPath
       id="clipPath4184">
      <path
         d="M 0,0 16,0 16,16 0,16 0,0 z"
         id="path4186" />
    </clipPath>
    <clipPath
       id="clipPath4220">
      <path
         d="M 0,0 16,0 16,16 0,16 0,0 z"
         id="path4222" />
    </clipPath>
  </defs>
  <g
     transform="matrix(0.85714286,0,0,0.85714286,-775.85931,1.21657)"
     id="g3920">
    <path
       d="m 1862.155,268.664 18.734,0 0,-8.75 -17.5,0 c 0,3.036 -0.516,5.932 -1.234,8.75"
       id="path3922"
       style="fill:#1a1a1a" />
    <path
       d="m 1758.386,329.914 140,0 0,-140 -140,0 0,140 z m 8.75,-131.25 122.5,0 0,122.5 -122.5,0 0,-122.5 z"
       id="path3924"
       style="fill:#1a1a1a" />
    <g
       id="g3926">
      <path
         d="m 1828.394,268.664 c -4.83,0 -8.758,-3.921 -8.758,-8.75 0,-4.83 3.92,-8.75 8.75,-8.75 4.83,0 8.75,3.92 8.75,8.75 0,4.829 -3.912,8.75 -8.742,8.75 m 0,-35 c -14.472,0 -26.258,11.777 -26.258,26.25 0,14.472 11.777,26.25 26.25,26.25 14.455,0 26.25,-11.778 26.25,-26.25 0.01,-14.473 -11.778,-26.25 -26.242,-26.25"
         id="path3928"
         style="fill:#1a1a1a" />
      <path
         d="m 1880.886,277.414 -22.357,0 c -6.055,10.403 -17.202,17.5 -30.143,17.5 -19.329,0 -35,-15.68 -35,-35 0,-19.329 15.671,-35 35,-35 16.301,0 29.863,11.182 33.766,26.25 l 18.734,0 0,-43.75 -105,0 0,17.5 8.75,0 0,8.75 -8.75,0 0,52.5 8.75,0 0,8.75 -8.75,0 0,17.5 105,0 0,-35 z"
         id="path3930"
         style="fill:#1a1a1a" />
    </g>
  </g>
  <path
     d="m 529.23579,246.49984 -97.5006,0 0,-44.99968 22.5003,0 0,22.50027 c 0,4.13973 3.3675,7.49952 7.5004,7.49952 4.1397,0 7.4995,-3.35979 7.4995,-7.49952 l 0,-22.50027 60.0004,0 0,44.99968 z m -45.0005,29.99979 -7.4995,0 0,-22.49942 7.4995,0 0,22.49942 z m 45.0005,-82.49984 -60.0004,0 0,-7.49952 11.2501,0 c 6.2173,0 11.2501,-5.03282 11.2501,-11.25014 0,-6.2096 -5.0328,-11.25013 -11.2501,-11.25013 l -18.7496,0 c -4.1329,0 -7.5004,3.35978 -7.5004,7.50037 l 0,22.49942 -22.5003,0 c -4.132,0 -7.4995,3.36064 -7.4995,7.50037 l 0,44.99968 c 0,4.13973 3.3675,7.50037 7.4995,7.50037 l 37.5002,0 0,29.99979 29.9998,0 0,-29.99979 30.0006,0 c 4.1475,0 7.4995,-3.36064 7.4995,-7.50037 l 0,-44.99968 c 0,-4.13973 -3.352,-7.50037 -7.4995,-7.50037"
     id="path3932"
     style="fill:#1a1a1a" />
  <g
     transform="matrix(0.85714286,0,0,0.85714286,-837.59029,1.216569)"
     id="g3934"
     style="fill:#1a171b;fill-opacity:1">
    <path
       d="m 1108.189,329.914 66.675,0 c 9.191,0 16.658,-7.84 16.658,-17.5 l 0,-26.25 c 0,-9.66 -7.467,-17.5 -16.658,-17.5 l -8.342,0 0,-59.439 c 0,-1.155 -0.433,-2.275 -1.217,-3.089 l -13,-13.659 c -1.566,-1.645 -3.691,-2.563 -5.9,-2.563 l -1.425,0 c -2.208,0 -4.333,0.918 -5.9,2.563 l -14.216,14.937 -4.175,0 c -2.3,0 -4.167,1.96 -4.167,4.375 l 0,8.75 c 0,2.415 1.867,4.375 4.167,4.375 l 4.175,0 0,8.75 -4.175,0 c -2.3,0 -4.167,1.96 -4.167,4.375 0,2.406 1.867,4.375 4.167,4.375 l 4.175,0 0,8.75 -4.175,0 c -2.3,0 -4.167,1.96 -4.167,4.375 0,2.415 1.867,4.375 4.167,4.375 l 4.175,0 0,8.75 -16.675,0 c -9.192,0 -16.667,7.84 -16.667,17.5 l 0,26.25 c 0,9.66 7.475,17.5 16.667,17.5 z m 16.675,-35 33.325,0 c 4.608,0 8.333,3.92 8.333,8.75 0,4.829 -3.725,8.75 -8.333,8.75 l -33.325,0 c -4.609,0 -8.342,-3.921 -8.342,-8.75 0,-4.83 3.733,-8.75 8.342,-8.75"
       id="path3936"
       style="fill:#1a171b;fill-opacity:1" />
    <path
       d="m 1184.844,219.914 118.381,0 0,10 -118.381,0 z"
       id="path3938"
       style="fill:#1a171b;fill-opacity:1" />
    <path
       d="m 1184.844,238.291 118.381,0 0,10 -118.381,0 z"
       id="path3940"
       style="fill:#1a171b;fill-opacity:1" />
    <path
       d="m 1195.777,257.581 107.448,0 0,10 -107.448,0 z"
       id="path3942"
       style="fill:#1a171b;fill-opacity:1" />
    <path
       d="m 1158.881,286.333 159.555,0.336 -0.758,-86.755 -160,0 z m 150.889,-6.33 -141.555,-0.336 -0.547,-69.753 140.01,0"
       id="path3944"
       style="fill:#1a171b;fill-opacity:1" />
  </g>
  <text
     x="801.32867"
     y="133.62074"
     id="text3946"
     style="line-height:125%">
    <tspan
       x="713.56769"
       y="144.12074"
       id="tspan3948"
       style="font-size:30px;font-style:normal;font-variant:normal;font-weight:normal;font-stretch:normal;text-align:start;line-height:125%;writing-mode:lr-tb;text-anchor:start;fill:#000000;font-family:Ubuntu;-inkscape-font-specification:Ubuntu">Key Storage</tspan>
  </text>
  <text
     x="481.86469"
     y="133.62074"
     id="text3950"
     style="line-height:125%">
    <tspan
       x="439.31671"
       y="144.12074"
       id="tspan3952"
       style="font-size:30px;font-style:normal;font-variant:normal;font-weight:normal;font-stretch:normal;text-align:start;line-height:125%;writing-mode:lr-tb;text-anchor:start;fill:#000000;font-family:Ubuntu;-inkscape-font-specification:Ubuntu">Inbox</tspan>
  </text>
  <text
     x="216.99969"
     y="133.62074"
     id="text3954"
     style="line-height:125%">
    <tspan
       x="139.33466"
       y="143.99574"
       id="tspan3956"
       style="font-size:30px;font-style:normal;font-variant:normal;font-weight:normal;font-stretch:normal;text-align:start;line-height:125%;writing-mode:lr-tb;text-anchor:start;fill:#000000;font-family:Ubuntu;-inkscape-font-specification:Ubuntu">Public Key</tspan>
  </text>
  <g
     transform="matrix(7.5,0,0,-7.5,57.03553,945.00149)"
     id="g3011"
     style="fill:#1a171b;fill-opacity:1">
    <g
       transform="translate(1.0008,16.0002)"
       id="g3013"
       style="fill:#1a171b;fill-opacity:1">
      <path
         d="m 0,0 0,-16 14,0 0,11.001 L 9.002,0 0,0 z m 1,-1 7,0 0,-5 5.001,0 0,-9 L 1,-15 1,-1 z M 9,-1.411 12.588,-5 9,-5 9,-1.411 z"
         id="path3015"
         style="fill:#1a171b;fill-opacity:1;fill-rule:nonzero;stroke:none" />
    </g>
  </g>
  <path
     d="m 290,709.99999 c -13.80712,0 -25,11.19288 -25,25 0,13.80712 11.19288,25 25,25 13.80712,0 25,-11.19288 25,-25 0,-13.80712 -11.19288,-25 -25,-25 z m -2.59375,13.1875 5.1875,0 0,9.40625 8.53125,0 0,4.875 -8.53125,0 0,9.40625 -5.1875,0 0,-9.40625 -8.53125,0 0,-4.875 8.53125,0 0,-9.40625 z"
     id="path4071"
     style="fill:#1a171b;fill-opacity:1;stroke:none" />
  <flowRoot
     id="flowRoot4081"
     xml:space="preserve"
     style="font-size:14px;font-style:normal;font-variant:normal;font-weight:bold;font-stretch:normal;line-height:125%;letter-spacing:0px;word-spacing:0px;fill:#000000;fill-opacity:1;stroke:none;font-family:Ubuntu Titling;-inkscape-font-specification:Ubuntu Titling Bold"><flowRegion
       id="flowRegion4083"><rect
         width="12.222222"
         height="31.111111"
         x="-250"
         y="256.66666"
         id="rect4085" /></flowRegion><flowPara
       id="flowPara4087" /></flowRoot>  <path
     d="m 167,734.89367 77.22223,0"
     id="path4089"
     style="fill-opacity:0;stroke:#000000;stroke-width:4;stroke-miterlimit:4;stroke-opacity:1;stroke-dasharray:none;stroke-dashoffset:0;marker-start:none;marker-mid:none;marker-end:url(#TriangleOutM)" />
  <path
     d="m 290.13889,768.33333 0,61.66666"
     id="path4089-2"
     style="fill-opacity:0;stroke:#000000;stroke-width:4;stroke-miterlimit:4;stroke-opacity:1;stroke-dasharray:none;stroke-dashoffset:0;marker-start:none;marker-mid:none;marker-end:url(#TriangleOutM)" />
  <g
     transform="matrix(5.0100199,0,0,-5.0100199,68.406359,793.85012)"
     id="g4164"
     style="fill:#1a171b;fill-opacity:1">
    <path
       d="m 7,16 2,0 0,-2 -2,0 0,2 z"
       id="path4166"
       style="fill:#1a171b;fill-opacity:1;fill-rule:nonzero;stroke:none" />
    <path
       d="m 4,16 2,0 0,-2 -2,0 0,2 z"
       id="path4168"
       style="fill:#1a171b;fill-opacity:1;fill-rule:nonzero;stroke:none" />
    <path
       d="m 4,13 2,0 0,-2 -2,0 0,2 z"
       id="path4170-6"
       style="fill:#1a171b;fill-opacity:1;fill-rule:nonzero;stroke:none" />
    <path
       d="m 1,16 2,0 0,-2 -2,0 0,2 z"
       id="path4172"
       style="fill:#1a171b;fill-opacity:1;fill-rule:nonzero;stroke:none" />
    <path
       d="m 1,13 2,0 0,-2 -2,0 0,2 z"
       id="path4174"
       style="fill:#1a171b;fill-opacity:1;fill-rule:nonzero;stroke:none" />
    <path
       d="M 4,10 6,10 6,8 4,8 4,10 z"
       id="path4176"
       style="fill:#1a171b;fill-opacity:1;fill-rule:nonzero;stroke:none" />
    <path
       d="M 1,10 3,10 3,8 1,8 1,10 z"
       id="path4178"
       style="fill:#1a171b;fill-opacity:1;fill-rule:nonzero;stroke:none" />
    <g
       id="g4180"
       style="fill:#1a171b;fill-opacity:1">
      <g
         clip-path="url(#clipPath4184)"
         id="g4182"
         style="fill:#1a171b;fill-opacity:1">
        <g
           transform="translate(12.499,7.541)"
           id="g4188"
           style="fill:#1a171b;fill-opacity:1">
          <path
             d="m 0,0 c -1.349,0.27 -2.499,-0.541 -2.452,2.99 l -0.047,0.469 c 0,0.55 -0.402,1.031 -0.953,1.031 -0.549,0 -1.047,-0.481 -1.047,-1.031 l 0,-5 c 0.113,-1.165 -0.558,-1.268 -1,-0.736 -0.352,0.422 -1.09,0.768 -1.64,0.768 -0.55,0 -0.736,-0.365 -0.414,-0.811 l 2.638,-3.162 c 0.805,-1.116 2.135,-2.027 3.963,-2.027 2.922,-10e-4 3.453,1.968 3.453,4.968 0,1 -0.936,2.228 -2.501,2.541"
             id="path4190"
             style="fill:#1a171b;fill-opacity:1;fill-rule:nonzero;stroke:none" />
        </g>
      </g>
    </g>
  </g>
  <g
     transform="matrix(3.1581181,0,0,-3.1581181,301.42302,819.19674)"
     id="g4214"
     style="fill:#1a171b;fill-opacity:1;stroke:none">
    <g
       id="g4216"
       style="fill:#1a171b;fill-opacity:1;stroke:none">
      <g
         clip-path="url(#clipPath4220)"
         id="g4218"
         style="fill:#1a171b;fill-opacity:1;stroke:none">
        <g
           transform="translate(12.0254,13.2759)"
           id="g4224"
           style="fill:#1a171b;fill-opacity:1;stroke:none">
          <path
             d="M 0,0 C 0.688,0 1.25,-0.561 1.25,-1.25 1.25,-1.939 0.688,-2.5 0,-2.5 c -0.689,0 -1.25,0.561 -1.25,1.25 C -1.25,-0.561 -0.689,0 0,0 m -5.025,-11.25 -0.688,2.113 0.859,0.778 1.278,-1.321 1.496,1.495 -1.145,1.384 1.057,1.054 c 1.357,-0.481 2.929,-0.191 4.015,0.894 1.506,1.504 1.506,3.945 0,5.45 -1.504,1.505 -3.946,1.504 -5.45,0 -1.084,-1.085 -1.375,-2.654 -0.895,-4.01 l -5.722,-5.722 -0.805,-3.115 3,0 1,2 2,-1 z"
             id="path4226"
             style="fill:#1a171b;fill-opacity:1;fill-rule:nonzero;stroke:none" />
        </g>
      </g>
    </g>
  </g>
  <text
     x="146.83092"
     y="691.41528"
     id="text4256"
     style="line-height:125%">
    <tspan
       x="59.069946"
       y="701.91528"
       id="tspan4258"
       style="font-size:30px;font-style:normal;font-variant:normal;font-weight:normal;font-stretch:normal;text-align:start;line-height:125%;writing-mode:lr-tb;text-anchor:start;fill:#000000;font-family:Ubuntu;-inkscape-font-specification:Ubuntu">Secret</tspan>
  </text>
  <text
     x="76.666992"
     y="52"
     id="text3123"
     style="line-height:125%">
    <tspan
       x="40"
       y="65"
       id="tspan3125"
       style="font-size:48px;font-style:normal;font-variant:normal;font-weight:normal;font-stretch:normal;text-align:start;line-height:125%;writing-mode:lr-tb;text-anchor:start;fill:#ffffff;fill-opacity:1;font-family:Ubuntu;-inkscape-font-specification:Ubuntu">alice#kullo.net</tspan>
  </text>
  <text
     x="1096.667"
     y="52"
     id="text3931"
     style="line-height:125%">
    <tspan
       x="1060"
       y="65"
       id="tspan3933"
       style="font-size:48px;font-style:normal;font-variant:normal;font-weight:normal;font-stretch:normal;text-align:start;line-height:125%;writing-mode:lr-tb;text-anchor:start;fill:#ffffff;fill-opacity:1;font-family:Ubuntu;-inkscape-font-specification:Ubuntu">bob#kullo.net</tspan>
  </text>
</svg>
