<?xml version="1.0" encoding="utf-8"?>
<!-- Generator: Adobe Illustrator 18.1.1, SVG Export Plug-In . SVG Version: 6.00 Build 0)  -->
<!DOCTYPE svg PUBLIC "-//W3C//DTD SVG 1.1//EN" "http://www.w3.org/Graphics/SVG/1.1/DTD/svg11.dtd">
<svg version="1.1" id="Ebene_1" xmlns="http://www.w3.org/2000/svg" xmlns:xlink="http://www.w3.org/1999/xlink" x="0px" y="0px"
	 viewBox="0 745.3 1280 407.2" enable-background="new 0 745.3 1280 407.2" xml:space="preserve">
<polygon fill="#EB443F" points="0,745.3 1280,745.3 1280,1036.4 1114.4,1036.4 1114.4,1152.5 0,1152.5 "/>
<g>
	<g>
		<polygon fill="#FFFFFF" points="323.5,1098.3 76,1098.3 74.3,1098.3 72.5,1098.3 70.7,1097.7 69,1097.1 67.2,1096.5 66,1095.9 
			64.2,1095.3 63.1,1094.1 61.3,1093 60.1,1092.4 58.9,1091.2 57.8,1089.4 56.6,1088.2 56,1087.1 54.8,1085.3 54.2,1083.5 
			53.6,1082.3 53,1080.6 53,1078.8 53,1077 52.4,1075.3 52.4,808.9 53,807.1 53,805.4 53,803.6 53.6,801.8 54.2,800.1 54.8,798.3 
			56,797.1 56.6,795.3 57.8,794.2 58.9,793 60.1,791.8 61.3,790.6 63.1,789.5 64.2,788.9 66,787.7 67.2,787.1 69,786.5 70.7,785.9 
			72.5,785.9 74.3,785.3 76,785.3 323.5,785.3 325.3,785.3 327.1,785.9 328.8,785.9 330.6,786.5 332.4,787.1 333.6,787.7 
			335.3,788.9 336.5,789.5 338.3,790.6 339.4,791.8 340.6,793 341.8,794.2 342.4,795.3 343.6,797.1 344.2,798.3 345.3,800.1 
			345.9,801.8 345.9,803.6 346.5,805.4 346.5,807.1 346.5,808.9 346.5,878.4 346.5,878.4 346.5,879.6 346.5,880.8 345.9,882 
			345.3,883.2 344.8,884.3 344.2,884.9 343.6,886.1 343,886.7 341.8,887.3 340.6,887.9 340,888.5 338.9,889 337.7,889.6 
			336.5,889.6 335.3,889.6 297,889.6 295.8,889.6 294.7,889.6 293.5,889 292.3,888.5 291.1,887.9 290.5,887.3 289.4,886.7 
			288.8,886.1 287.6,884.9 287,883.7 286.4,882.6 286.4,882 285.8,880.8 285.8,879 285.8,877.9 285.8,860.2 285.8,858.4 
			285.2,856.6 285.2,854.9 284.6,853.7 284.1,851.9 283.5,850.7 282.3,849.6 281.7,847.8 280.5,846.6 279.3,846 278.2,844.8 
			277,843.7 275.8,843.1 274,842.5 272.9,841.9 271.1,841.3 269.3,840.7 267.6,840.7 266.4,840.7 133.8,840.7 132.6,840.7 
			130.8,840.7 129.1,841.3 127.3,841.9 126.1,842.5 124.9,843.1 123.2,843.7 122,844.8 120.8,846 119.6,846.6 118.5,847.8 
			117.9,849.6 116.7,850.7 116.1,851.9 115.5,853.7 114.9,854.9 114.9,856.6 114.9,858.4 114.3,860.2 114.3,911.4 168,963.9 
			168,1022.8 168,1024.6 168,1026.4 168.5,1028.1 168.5,1029.3 169.1,1031.1 170.3,1032.3 170.9,1034 172.1,1035.2 172.7,1036.4 
			173.8,1037.6 175,1038.1 176.2,1039.3 178,1039.9 179.2,1041.1 180.9,1041.7 182.1,1041.7 183.9,1042.3 185.6,1042.3 
			187.4,1042.3 266.4,1042.3 267.6,1042.3 269.3,1042.3 271.1,1041.7 272.9,1041.7 274,1041.1 275.8,1039.9 277,1039.3 
			278.2,1038.1 279.3,1037.6 280.5,1036.4 281.7,1035.2 282.3,1034 283.5,1032.3 284.1,1031.1 284.6,1029.3 285.2,1028.1 
			285.2,1026.4 285.8,1024.6 285.8,1022.8 285.8,1009.9 285.8,1008.7 285.8,1007.5 286.4,1006.3 286.4,1005.1 287,1004 
			287.6,1002.8 288.8,1002.2 289.4,1001 290.5,1000.4 291.1,999.8 292.3,999.3 293.5,998.7 294.7,998.7 295.8,998.1 297,998.1 
			335.3,998.1 336.5,998.1 337.7,998.7 338.9,998.7 340,999.3 341.2,999.8 341.8,1000.4 343,1001 343.6,1002.2 344.8,1002.8 
			345.3,1004 345.9,1005.1 345.9,1006.3 346.5,1007.5 346.5,1008.7 346.5,1009.9 346.5,1075.3 346.5,1077 346.5,1078.8 
			345.9,1080.6 345.9,1082.3 345.3,1083.5 344.2,1085.3 343.6,1087.1 342.4,1088.2 341.8,1089.4 340.6,1091.2 339.4,1092.4 
			338.3,1093 336.5,1094.1 335.3,1095.3 333.6,1095.9 332.4,1096.5 330.6,1097.1 328.8,1097.7 327.1,1098.3 325.3,1098.3 		"/>
	</g>
	<g>
		<polygon fill="#FFFFFF" points="688.9,1098.3 690.1,1098.3 691.3,1098.3 692.4,1097.7 693.6,1097.1 694.8,1097.1 696,1095.9 
			696.6,1095.3 697.8,1094.7 698.3,1093.5 698.9,1092.4 699.5,1091.8 700.1,1090.6 700.1,1089.4 700.7,1088.2 700.7,1086.5 
			700.7,797.1 700.7,795.9 700.1,794.8 700.1,793.6 699.5,792.4 698.9,791.2 698.3,790 697.8,789.5 696.6,788.3 696,787.7 
			694.8,787.1 693.6,786.5 692.4,785.9 691.3,785.9 690.1,785.3 688.9,785.3 651.2,785.3 649.4,785.3 648.3,785.9 647.1,785.9 
			645.9,786.5 645.3,787.1 644.1,787.7 642.9,788.3 642.4,789.5 641.8,790 641.2,791.2 640.6,792.4 640,793.6 639.4,794.8 
			639.4,795.9 639.4,797.1 639.4,901.4 639.4,903.2 638.8,904.4 638.8,906.1 638.2,907.9 637.6,909.1 637.1,910.9 635.9,912 
			635.3,913.2 634.1,914.4 632.9,915.6 631.7,916.7 630.6,917.3 629.4,918.5 627.6,919.1 626.4,919.7 624.7,920.3 622.9,920.3 
			621.7,920.9 620,920.9 486.8,920.9 485,920.9 483.8,920.3 482.1,920.3 480.9,919.7 479.1,919.1 477.9,918.5 476.8,917.9 
			475,916.7 473.8,916.2 473.2,915 472,913.8 470.9,912.6 470.3,911.4 469.1,910.3 468.5,909.1 467.9,907.3 467.9,906.1 
			467.3,904.4 467.3,902.6 467.3,901.4 467.3,797.1 467.3,795.9 466.7,794.8 466.7,793.6 466.2,792.4 465.6,791.2 465,790 
			463.8,789.5 463.2,788.3 462,787.7 461.4,787.1 460.3,786.5 459.1,785.9 457.9,785.9 456.7,785.3 455,785.3 417.2,785.3 
			416.1,785.3 414.9,785.9 413.7,785.9 412.5,786.5 411.3,787.1 410.2,787.7 409.6,788.3 408.4,789.5 407.8,790 407.2,791.2 
			406.6,792.4 406,793.6 406,794.8 405.5,795.9 405.5,797.1 406,1075.3 406,1077 406,1078.8 406.6,1080.6 407.2,1082.3 
			407.8,1083.5 408.4,1085.3 409,1087.1 410.2,1088.2 411.3,1089.4 412.5,1091.2 413.7,1092.4 414.9,1093 416.1,1094.1 
			417.8,1095.3 419,1095.9 420.8,1096.5 422.5,1097.1 424.3,1097.7 425.5,1098.3 427.8,1098.3 429.6,1098.3 497.4,1098.3 
			499.2,1098.3 500.9,1098.3 502.7,1097.7 504.5,1097.1 506.2,1096.5 508,1095.9 509.2,1095.3 510.9,1094.1 512.1,1093 
			513.3,1092.4 514.5,1091.2 515.7,1089.4 516.8,1088.2 518,1087.1 518.6,1085.3 519.2,1083.5 519.8,1082.3 520.4,1080.6 
			520.4,1078.8 521,1077 521,1075.3 521,996.3 521.5,995.1 521.5,993.4 521.5,991.6 522.1,990.4 522.1,988.6 522.7,987.5 
			523.3,986.3 524.5,985.1 525.1,983.9 526.3,982.7 526.9,981.6 528,981 529.2,979.8 530.4,979.2 532.2,978.6 533.3,978 
			534.5,977.4 536.3,976.9 537.5,976.9 539.2,976.9 541,976.9 619.4,976.9 621.1,976.9 622.9,976.9 624.1,977.4 625.9,977.4 
			627,978 628.2,978.6 630,979.8 631.2,980.4 632.3,981.6 633.5,982.2 634.1,983.3 635.3,984.5 636.5,985.7 637.1,986.9 
			637.6,988.6 638.2,989.8 638.8,991.6 638.8,992.8 638.8,994.5 639.4,996.3 639.4,995.1 639.4,1086.5 639.4,1088.2 639.4,1089.4 
			640,1090.6 640,1091.8 640.6,1092.4 641.2,1093.5 642.4,1094.7 642.9,1095.3 644.1,1095.9 645.3,1097.1 645.9,1097.1 
			647.1,1097.7 648.3,1098.3 649.4,1098.3 651.2,1098.3 		"/>
	</g>
	<g>
		<polygon fill="#FFFFFF" points="854.5,1098.3 856.3,1098.3 858,1098.3 859.8,1097.7 861.6,1097.1 863.4,1096.5 864.5,1095.9 
			866.3,1095.3 867.5,1094.1 869.2,1093 870.4,1092.4 871.6,1091.2 872.8,1089.4 874,1088.2 874.5,1087.1 875.7,1085.3 
			876.3,1083.5 876.9,1082.3 877.5,1080.6 877.5,1078.8 878.1,1077 878.1,1075.3 878.1,965.1 825.6,912 825.6,797.1 825,795.9 
			825,794.8 825,793.6 824.5,792.4 823.9,791.2 823.3,790 822.1,789.5 821.5,788.3 820.3,787.7 819.7,787.1 818.6,786.5 
			817.4,785.9 816.2,785.9 815,785.3 813.8,785.3 775,785.3 773.2,785.3 772,785.9 770.8,785.9 769.7,786.5 768.5,787.1 
			767.9,787.7 766.7,788.3 766.1,789.5 764.9,790 764.3,791.2 763.8,792.4 763.2,793.6 763.2,794.8 762.6,795.9 762.6,797.1 
			762.6,1075.3 762.6,1077 763.2,1078.8 763.2,1080.6 763.8,1082.3 764.3,1083.5 764.9,1085.3 765.5,1087.1 766.7,1088.2 
			767.9,1089.4 769.1,1091.2 770.2,1092.4 771.4,1093 772.6,1094.1 773.8,1095.3 775.5,1095.9 777.3,1096.5 778.5,1097.1 
			780.3,1097.7 782,1098.3 783.8,1098.3 785.6,1098.3 		"/>
	</g>
	<g>
		<path fill="#FFFFFF" d="M1156.2,919.7h1.2h1.2l1.2-0.6l1.2-0.6l1.2-0.6l1.2-0.6l1.2-0.6l0.6-0.6l0.6-1.2l0.6-1.2l0.6-1.2l0.6-1.2
			l0.6-1.2v-1.2v-1.2v-57.2v-1.2v-0.9l-0.6-1.2l-0.6-1.2l-0.6-1.2l-0.6-1.2l-0.6-1.2l-0.6-0.6l-1.2-0.6l-1.2-0.6l-1.2-0.6l-1.2-0.6
			l-1.2-0.6h-1.2h-1.2h-147.9h-1.2h-1.2l-1.2,0.6l-1.2,0.6l-1.2,0.6l-1.2,0.6l-1.2,0.6l-0.6,0.6l-0.6,1.2l-0.6,1.2l-0.6,1.2
			l-0.6,1.2l-0.6,1.2v1.2v1.2V908v1.2v1.2l0.6,1.2l0.6,1.2l0.6,1.2l0.6,1.2l0.6,1.2l0.6,0.6l1.2,0.6l1.2,0.6l1.2,0.6l1.2,0.6
			l1.2,0.6h1.2h1.2h147.9V919.7z M1028.4,1098.3h-69h-1.8h-1.8l-1.8-0.6l-1.8-0.6l-1.8-0.6l-1.8-0.6l-1.8-0.6l-1.2-1.2l-1.2-1.2
			l-1.2-1.2l-1.2-1.2l-1.2-1.2l-1.2-1.2l-1.2-1.2l-0.6-1.8l-0.6-1.8l-0.6-1.8l-0.6-1.8l-0.6-1.8v-1.8v-1.8v-266v-1.8v-1.8l0.6-1.8
			l0.6-1.8l0.6-1.8l0.6-1.8l0.6-1.8l1.2-1.2l1.2-1.2l1.2-1.2l1.2-1.2l1.2-1.2l1.2-1.2l1.2-1.2l1.8-0.6l1.8-0.6l1.8-0.6l1.8-0.6
			l1.8-0.6h1.8h1.8H1204h1.8h1.8l1.8,0.6l1.8,0.6l1.8,0.6l1.8,0.6l1.8,0.6l1.2,1.2l1.2,1.2l1.2,1.2l1.2,1.2l1.2,1.2l1.2,1.2l1.2,1.2
			l0.6,1.8l0.6,1.8l0.6,1.8l0.6,1.8l0.6,1.8v1.8v1.8v143.8v1.8v1.8l-0.6,1.8l-0.6,1.8l-0.6,1.8l-0.6,1.8l-0.6,1.8l-1.2,1.2l-1.2,1.2
			l-1.2,1.2l-1.2,1.2l-1.2,1.2l-1.2,1.2l-1.2,1.2l-1.8,0.6l-1.8,0.6l-1.8,0.6l-1.8,0.6l-1.8,0.6h-1.8h-1.8h-132.6h-1.8h-1.8
			l-1.8,0.6l-1.2,0.6l-1.2,0.6l-1.2,0.6l-1.2,0.6l-1.2,0.6l-1.2,1.2l-1.2,1.2l-1.2,1.2l-1.2,1.2l-0.6,1.2l-0.6,1.2l-0.6,1.2
			l-0.6,1.2l-0.6,1.8l-0.6,1.8v1.8v1.8v79.6v1.8v1.8l-0.6,1.8l-0.6,1.8l-0.6,1.8l-0.6,1.8l-0.6,1.8l-1.2,1.2l-1.2,1.2l-1.2,1.2
			l-1.2,1.2l-1.2,1.2l-1.2,1.2l-1.2,1.2l-1.8,0.6l-1.8,0.6l-1.8,0.6l-1.8,0.6l-1.8,0.6h-1.8L1028.4,1098.3z"/>
	</g>
</g>
</svg>
