<?xml version="1.0" encoding="UTF-8" standalone="no"?>
<!-- Created with Inkscape (http://www.inkscape.org/) -->

<svg
   xmlns:dc="http://purl.org/dc/elements/1.1/"
   xmlns:cc="http://creativecommons.org/ns#"
   xmlns:rdf="http://www.w3.org/1999/02/22-rdf-syntax-ns#"
   xmlns:svg="http://www.w3.org/2000/svg"
   xmlns="http://www.w3.org/2000/svg"
   version="1.1"
   width="50"
   height="50"
   id="svg2"
   xml:space="preserve"><metadata
     id="metadata8"><rdf:RDF><cc:Work
         rdf:about=""><dc:format>image/svg+xml</dc:format><dc:type
           rdf:resource="http://purl.org/dc/dcmitype/StillImage" /><dc:title></dc:title></cc:Work></rdf:RDF></metadata><defs
     id="defs6"><clipPath
       id="clipPath16"><path
         d="M 0,0 16,0 16,16 0,16 0,0 z"
         id="path18" /></clipPath></defs><g
     transform="matrix(1.1878248,0,0,1.1878248,-4.7141797,-4.7141799)"
     id="g3893"><path
       d="M 25,3.96875 C 13.34385,3.96875 3.96875,13.34385 3.96875,25 3.96875,36.656149 13.34385,46.0625 25,46.0625 36.656149,46.0625 46.0625,36.656149 46.0625,25 46.0625,13.34385 36.656149,3.96875 25,3.96875 z m 0,2.6875 c 9.103334,0 16.645833,6.671551 18.0625,15.375 C 42.645833,21.231239 42.306667,20.320423 42,19.84375 41.466667,18.997072 41.117084,17.646676 40.34375,17 l 0.0625,0.6875 C 40.002917,17.567498 39.6775,17.360005 39.4375,17 c -0.04,-0.160002 0.409583,0.208757 0.15625,-0.28125 -0.633334,0.08667 -1.108333,-0.567495 -1.625,-0.9375 C 37.045417,15.661249 36.065,16.425008 35.125,15.875 34.905,15.744999 34.68375,14.997494 34.34375,15.4375 l -0.625,0.15625 C 32.665416,15.273746 32.2,14.367083 31.25,14.34375 c 0.01333,0.403338 0.68,1.000831 1,1.1875 0.426666,0.243336 0.734583,1.293763 0.78125,0.34375 0.606667,0.350005 0.167917,1.130421 1.03125,0.84375 0.646667,0.25667 0.488333,-0.780413 0.625,-1.09375 l 0.46875,0.78125 c 0.343333,0.316671 0.832917,0.201246 1.15625,0.53125 0.396667,0.416673 0.63125,1.031244 0.53125,1.53125 -0.366666,-0.03 -0.0725,0.445828 -0.3125,0.8125 -0.253333,0.383338 -0.239583,0.458328 -0.40625,0.875 -0.443333,0.110002 -0.951666,0.326242 -0.875,0.90625 -0.306666,0.373338 -3.074167,2.359174 -3.4375,1.8125 C 31.359167,22.198324 31.26625,21.247927 30.90625,20.53125 30.352917,20.351248 29.223333,18.998757 29,18.46875 c 0.163333,-0.933346 -2.31875,-2.799167 -2.71875,-2.8125 0.29,1.270017 1.402917,1.957487 1.90625,2.9375 0.426667,0.840011 1.211667,2.823747 1.875,3.09375 1.083334,-0.103335 1.757084,1.871244 2.34375,2.28125 0.76,0.530007 2.29875,-1.201252 2.96875,-1.03125 0.07333,0.896679 0.05459,1.16957 -0.21875,2.15625 -0.553333,2.036694 -1.484166,2.915812 -2.6875,4.5625 -0.693333,0.943346 -1.132917,1.612903 -1.65625,2.65625 -0.41,0.820011 0.764167,2.543327 0.4375,3 0.176667,1.346685 -0.149167,2.142491 -1.3125,2.8125 -0.853333,0.496673 -1.57125,0.972904 -1.28125,1.90625 0.286667,0.930012 -0.863333,1.067076 -1,1.59375 -0.35,0.866678 -0.872084,1.329579 -1.46875,1.65625 -0.393334,0.02667 -0.784167,0.0625 -1.1875,0.0625 -0.723333,0 -1.44625,-0.07958 -2.15625,-0.15625 -0.943334,-1.180016 -1.9275,-2.417068 -2.9375,-3.59375 C 19.289583,38.890407 18.475,37.590846 19.375,36.6875 c 0.1,-0.586674 -0.592916,-1.91416 -0.90625,-2.4375 -0.523333,-0.870012 -2.943333,-2.767903 -2,-3.78125 C 16.59875,29.795407 16,29.120423 16,28.59375 c -0.513333,-0.410006 -1.027916,0.564179 -1.53125,-0.3125 -0.533333,-0.936679 -1.509167,-0.705008 -2.3125,-0.125 l -2.625,0.28125 C 7.83125,26.91748 7.2849999,24.540027 7.875,22.5 8.1116666,21.656656 8.17375,20.163757 8.84375,19.59375 9.06375,18.713738 10.085,17.84501 10.625,17.125 c 0.286666,-0.386672 0.725833,-0.412495 1.0625,-0.8125 0.503333,-0.590008 0.75625,-1.320409 1.40625,-1.84375 0.656666,-0.52334 2.071666,-1.403748 0.875,-1.59375 0.473333,-0.696676 1.22,-1.444572 1.5,-2.28125 0.41,-0.330004 1.189583,-0.21083 1.65625,-0.4375 0.393333,-0.8166772 0.55625,-0.7645764 0.40625,-1.28125 0.08,-0.3333378 1.151667,-0.6041656 1.375,-0.6875 C 19.322917,8.0241645 19.685833,7.6550037 20.0625,7.375 21.6425,6.9316607 23.29,6.65625 25,6.65625 z m 9.9375,28.5 0.125,0.78125 L 35.03125,36 34.875,36.78125 34.78125,36.625 c -1.106666,0.900012 -1.090416,3.429158 -2.59375,4.0625 -0.806666,0.336671 -0.709584,-0.741662 -0.40625,-1.125 0.453333,-0.573341 -0.18625,-0.939993 0.09375,-1.5 l -0.03125,-0.03125 c -0.273333,-0.06667 -0.5625,-0.772911 -0.5625,-1.15625 0.32,-0.06 0.504583,-0.241668 0.53125,-0.125 l 0.46875,-0.875 c 0.103333,0.573341 -0.724167,1.706244 -0.4375,2.15625 l 0.28125,-0.1875 c 0,0.306671 0.09209,0.570413 0.21875,0.84375 -0.353333,-1.373352 1.022916,-1.405406 1.65625,-2.21875 0.24,-0.316671 0.630833,-1.179165 0.9375,-1.3125 z"
       id="path22"
       style="fill:#1a171b;fill-opacity:1;fill-rule:nonzero;stroke:none" /><path
       d="m 24.695001,8.8324508 0.166667,-0.1900025 c -0.586667,0.2166695 -0.206667,-0.423339 -0.756667,0.2166695 0.143333,0.4833398 -0.493333,0.8066775 -0.216667,1.3200172 0.57,0.48334 1.14,-0.260003 1.7,-0.3500042 -0.0033,0.3266712 1.17,0.2800032 1.35,0.3233372 -0.316666,-0.07667 0.106667,-0.06333 0,0 1.07,-0.6633418 -2.203333,-1.2966836 -2.243333,-1.3200172"
       id="path26"
       style="fill:#1a171b;fill-opacity:1;fill-rule:nonzero;stroke:none" /><path
       d="m 18.967334,11.589821 -0.38,0.07667 c 0.1,-0.313338 0.56,-1.44002 0.84,-1.486687 -0.02,0.406672 -0.39,0.990013 -0.46,1.410019 m 4.806667,0.460006 c 0.04,-0.26667 -0.28,-0.28667 -0.403334,-0.626675 0.426667,-0.506673 -0.37,-0.253337 0.05667,-0.806677 l -0.646667,0 c -0.09333,0.363338 0.176667,0.233336 -0.303333,0.133335 -0.16,0.393338 0.373333,0.660009 0.303333,1.02668 l -0.216666,-0.08 c -0.06667,0.263337 -0.02333,0.203336 -0.03,0.620008 -0.74,-0.136668 -0.336667,-0.700009 -0.973334,-1.51002 0.58,-0.460006 -1.193333,-1.3633513 -0.94,-1.6466884 -1.25,0.3333378 0.993334,1.6433554 0.646667,1.9433594 -0.576667,-0.330005 -0.16,0.130002 -0.513333,0.520007 -0.513334,0.583341 -0.466667,0.776677 -1.246667,0.476673 -0.03333,-0.646675 1.47,-0.07 0.783333,-1.256684 -0.346666,-0.583341 -0.676666,-1.2800167 -1.323333,-0.850011 -0.613333,0.403339 -1.716667,0.636675 -2.19,1.516687 l -2.243333,1.946693 c 0.76,0.616674 3.76,-1.830025 4.51,-1.110015 -0.04667,0.506673 -0.633334,0.890012 -0.646667,1.400018 l 0.543333,0.353338 c 0.99,-0.216669 0.723334,0.470007 1.46,0.646676 1.223334,0.303337 0.29,0.07667 1.06,-0.690009 0.253334,-0.243337 1.606667,-0.21667 1.666667,0.206669 -0.04,-0.263337 0.566667,-0.103335 0,0 0.603333,-0.110001 1.183333,0.49334 1.626667,0.04333 0.316666,-0.310004 0.58,-0.250003 0.813333,-0.07333 1.093333,0.786677 0.726667,-2.283364 0.756667,-2.430033 -0.38,0.24667 -2.563334,0.47334 -2.55,0.24667"
       id="path30"
       style="fill:#1a171b;fill-opacity:1;fill-rule:nonzero;stroke:none" /><path
       d="m 28.640334,8.7721167 0.326667,-0.326671 c -0.183334,-0.8100108 -1.026667,-0.1566688 -1.026667,0.3600048 0.316667,0.380005 1.593333,1.050014 1.676667,1.4033525 -0.296667,0.113334 0.07333,1.00668 0.54,0.973346 0.333333,0.280004 0.703333,0.330004 1.106666,0.160002 -0.103333,-0.756677 -2.003333,-2.2433633 -2.623333,-2.5700343"
       id="path34"
       style="fill:#1a171b;fill-opacity:1;fill-rule:nonzero;stroke:none" /><path
       d="m 31.101334,8.8861182 c -0.3,-0.070001 -0.626667,-0.7466766 -0.943333,-0.8400112 l -0.05333,0.273337 c 0.116667,0.1966693 0.65,0.9366791 0.996667,0.5666742"
       id="path38"
       style="fill:#1a171b;fill-opacity:1;fill-rule:nonzero;stroke:none" /><path
       d="m 17.126332,10.16847 -0.02667,0.04 0.296667,-0.2400037 -0.27,0.2000027 z"
       id="path42"
       style="fill:#1d1d1b;fill-opacity:1;fill-rule:nonzero;stroke:none" /></g></svg>