<?xml version="1.0" encoding="UTF-8" standalone="no"?>
<!-- Created with Inkscape (http://www.inkscape.org/) -->

<svg
   xmlns:dc="http://purl.org/dc/elements/1.1/"
   xmlns:cc="http://creativecommons.org/ns#"
   xmlns:rdf="http://www.w3.org/1999/02/22-rdf-syntax-ns#"
   xmlns:svg="http://www.w3.org/2000/svg"
   xmlns="http://www.w3.org/2000/svg"
   xmlns:sodipodi="http://sodipodi.sourceforge.net/DTD/sodipodi-0.dtd"
   xmlns:inkscape="http://www.inkscape.org/namespaces/inkscape"
   id="svg2"
   version="1.1"
   inkscape:version="0.91 r13725"
   xml:space="preserve"
   width="40"
   height="40"
   viewBox="0 0 40 40"
   sodipodi:docname="Group.svg"><metadata
     id="metadata8"><rdf:RDF><cc:Work
         rdf:about=""><dc:format>image/svg+xml</dc:format><dc:type
           rdf:resource="http://purl.org/dc/dcmitype/StillImage" /><dc:title></dc:title></cc:Work></rdf:RDF></metadata><defs
     id="defs6"><clipPath
       clipPathUnits="userSpaceOnUse"
       id="clipPath16"><path
         d="M 0,0 16,0 16,16 0,16 0,0 Z"
         id="path18"
         inkscape:connector-curvature="0" /></clipPath></defs><sodipodi:namedview
     pagecolor="#88aaff"
     bordercolor="#666666"
     borderopacity="1"
     objecttolerance="10"
     gridtolerance="10"
     guidetolerance="10"
     inkscape:pageopacity="0"
     inkscape:pageshadow="2"
     inkscape:window-width="1863"
     inkscape:window-height="1056"
     id="namedview4"
     showgrid="false"
     inkscape:zoom="11.8"
     inkscape:cx="10"
     inkscape:cy="16.779661"
     inkscape:window-x="1977"
     inkscape:window-y="37"
     inkscape:window-maximized="1"
     inkscape:current-layer="g10" /><g
     id="g10"
     inkscape:groupmode="layer"
     inkscape:label="Users-24"
     transform="matrix(1.25,0,0,-1.25,0,40)"><g
       id="g12"
       style="fill:#1a171b;fill-opacity:1"
       transform="matrix(2,0,0,2,0,-1e-4)"><g
         id="g14"
         clip-path="url(#clipPath16)"
         style="fill:#1a171b;fill-opacity:1"><g
           id="g20"
           transform="translate(15,11.7998)"
           style="fill:#1a171b;fill-opacity:1"><path
             d="M 0,0 C 0,0.994 -0.672,1.8 -1.5,1.8 -2.328,1.8 -3,0.994 -3,0 c 0,-0.994 0.672,-1.8 1.5,-1.8 0.828,0 1.5,0.806 1.5,1.8"
             style="fill:#1a171b;fill-opacity:1;fill-rule:nonzero;stroke:none"
             id="path22"
             inkscape:connector-curvature="0" /></g><g
           id="g24"
           transform="translate(4,11.7998)"
           style="fill:#1a171b;fill-opacity:1"><path
             d="M 0,0 C 0,0.994 -0.672,1.8 -1.5,1.8 -2.328,1.8 -3,0.994 -3,0 c 0,-0.994 0.672,-1.8 1.5,-1.8 0.828,0 1.5,0.806 1.5,1.8"
             style="fill:#1a171b;fill-opacity:1;fill-rule:nonzero;stroke:none"
             id="path26"
             inkscape:connector-curvature="0" /></g><g
           id="g28"
           transform="translate(4,8.1001)"
           style="fill:#1a171b;fill-opacity:1"><path
             d="M 0,0 C 0,0.682 0.143,1.32 0.379,1.9 L -2,1.9 c -1.1,0 -2,-0.9 -2,-2 l 0,-2 4.474,0 C 0.182,-1.47 0,-0.762 0,0"
             style="fill:#1a171b;fill-opacity:1;fill-rule:nonzero;stroke:none"
             id="path30"
             inkscape:connector-curvature="0" /></g><g
           id="g32"
           transform="translate(14,10)"
           style="fill:#1a171b;fill-opacity:1"><path
             d="m 0,0 -2.545,0 c 0.236,-0.579 0.379,-1.219 0.379,-1.9 0,-0.763 -0.182,-1.47 -0.473,-2.1 L 2,-4 2,-2 C 2,-0.9 1.1,0 0,0"
             style="fill:#1a171b;fill-opacity:1;fill-rule:nonzero;stroke:none"
             id="path34"
             inkscape:connector-curvature="0" /></g><g
           id="g36"
           transform="translate(10.6797,4.9141)"
           style="fill:#1a171b;fill-opacity:1"><path
             d="m 0,0 c -0.219,0.053 -0.445,0.086 -0.68,0.086 l -0.756,0 c 0.94,0.581 1.59,1.743 1.59,3.1 0,1.932 -1.306,3.5 -2.917,3.5 -1.61,0 -2.917,-1.568 -2.917,-3.5 0,-1.357 0.65,-2.519 1.591,-3.1 l -0.591,0 c -0.279,0 -0.547,-0.052 -0.805,-0.125 -1.26,-0.356 -2.195,-1.506 -2.195,-2.875 l 0,-2 10,0 0,2 C 2.32,-1.499 1.324,-0.311 0,0"
             style="fill:#1a171b;fill-opacity:1;fill-rule:nonzero;stroke:none"
             id="path38"
             inkscape:connector-curvature="0" /></g></g></g></g></svg>